<svg width="97" height="142" viewBox="0 0 97 142" fill="none" xmlns="http://www.w3.org/2000/svg">
<path d="M0.597656 113.668L48.668 85.915L96.7383 113.668L48.668 141.422L0.597656 113.668Z" fill="#F2D51C"/>
<path d="M9.25562 69.4466V114.956L48.6679 137.711V92.2015L9.25562 69.4466Z" fill="#ECECEB"/>
<path d="M48.668 92.2015L88.0802 69.4466V114.956L48.668 137.711V92.2015Z" fill="#DFDFDD"/>
<path d="M9.25562 101.314V114.956L48.6679 137.711V124.069L9.25562 101.314Z" fill="#E81F2A"/>
<path d="M48.668 124.069L88.0802 101.314V114.956L48.668 137.711V124.069Z" fill="#D61E25"/>
<path d="M9.25562 85.5894V99.2318L48.6679 121.986V108.344L9.25562 85.5894Z" fill="#040606"/>
<path d="M48.668 108.344L88.0802 85.5894V99.2318L48.668 121.986V108.344Z" fill="#040606"/>
<path d="M9.25562 66.727V76.6211L48.6679 100.49V89.4819L9.25562 66.727Z" fill="#DFDFDD"/>
<path d="M48.668 89.4814V100.49L48.7533 100.543L88.0802 83.509V69.4458L48.668 89.4814Z" fill="#CECDCB"/>
<path d="M7.02563 65.4401V73.4539L48.6679 97.4961V89.4823L7.02563 65.4401Z" fill="#ECECEB"/>
<path d="M48.668 89.4823L90.3098 65.4401V73.4539L48.668 97.4961V89.4823Z" fill="#DFDFDD"/>
<path d="M7.02563 65.4402L48.6679 41.3984L90.3097 65.4402L48.6679 89.4824L7.02563 65.4402Z" fill="#F8F8F9"/>
<path d="M87.1692 63.6273C67.2843 72.1838 48.4769 70.4433 47.3994 69.9896C47.3994 69.9896 58.7706 61.923 71.8004 54.754L87.1692 63.6273Z" fill="#ECECEB"/>
<path d="M38.2046 65.2628L41.038 63.6268L58.7491 73.8522L55.9153 75.4883L38.2046 65.2628Z" fill="#505153"/>
<path d="M44.7466 51.4872C44.7466 51.4872 60.6306 53.3905 70.4578 33.1244L73.2046 52.2822C73.2046 52.2822 67.9036 65.103 47.3994 69.9883L44.7466 51.4872Z" fill="white"/>
<rect x="6.66357" y="0.5" width="83.3427" height="17.7923" fill="#040606"/>
<rect x="6.66357" y="19.0078" width="83.3427" height="11.7694" fill="#D21B32"/>
<path d="M28.9908 10H28.147L29.6832 5.63636H30.6591L32.1974 10H31.3537L30.1882 6.53125H30.1541L28.9908 10ZM29.0185 8.28906H31.3196V8.92401H29.0185V8.28906ZM36.3581 5.63636V10H35.655L33.5989 7.0277H33.5627V10H32.7722V5.63636H33.4796L35.5336 8.6108H35.5719V5.63636H36.3581ZM40.1428 7.02983C40.1072 6.91477 40.0582 6.81179 39.9957 6.72088C39.9347 6.62855 39.8608 6.54972 39.7741 6.48438C39.6889 6.41903 39.5909 6.37003 39.4801 6.33736C39.3693 6.30327 39.2486 6.28622 39.1179 6.28622C38.8835 6.28622 38.6747 6.34517 38.4915 6.46307C38.3082 6.58097 38.1641 6.75426 38.0589 6.98295C37.9553 7.21023 37.9034 7.48722 37.9034 7.81392C37.9034 8.14347 37.9553 8.42259 38.0589 8.65128C38.1626 8.87997 38.3068 9.05398 38.4915 9.1733C38.6761 9.29119 38.8906 9.35014 39.1349 9.35014C39.3565 9.35014 39.5483 9.30753 39.7102 9.2223C39.8736 9.13707 39.9993 9.01634 40.0874 8.86009C40.1754 8.70241 40.2195 8.51776 40.2195 8.30611L40.3984 8.33381H39.2138V7.71591H40.9844V8.24006C40.9844 8.61364 40.9048 8.93679 40.7457 9.20952C40.5866 9.48224 40.3679 9.69247 40.0895 9.8402C39.8111 9.98651 39.4915 10.0597 39.1307 10.0597C38.7287 10.0597 38.3757 9.96946 38.0717 9.78906C37.7692 9.60724 37.5327 9.34943 37.3622 9.01562C37.1932 8.6804 37.1087 8.28267 37.1087 7.82244C37.1087 7.47017 37.1584 7.15554 37.2578 6.87855C37.3587 6.60156 37.4993 6.36648 37.6797 6.1733C37.8601 5.97869 38.0717 5.83097 38.3146 5.73011C38.5575 5.62784 38.8217 5.5767 39.1072 5.5767C39.3487 5.5767 39.5739 5.61222 39.7827 5.68324C39.9915 5.75284 40.1768 5.85227 40.3388 5.98153C40.5021 6.1108 40.6364 6.2642 40.7415 6.44176C40.8466 6.61932 40.9155 6.81534 40.9482 7.02983H40.1428ZM45.6479 7.81818C45.6479 8.28835 45.5598 8.69105 45.3837 9.02628C45.209 9.36009 44.9703 9.61577 44.6678 9.79332C44.3667 9.97088 44.025 10.0597 43.6429 10.0597C43.2608 10.0597 42.9185 9.97088 42.6159 9.79332C42.3148 9.61435 42.0762 9.35795 41.9 9.02415C41.7253 8.68892 41.638 8.28693 41.638 7.81818C41.638 7.34801 41.7253 6.94602 41.9 6.61222C42.0762 6.27699 42.3148 6.0206 42.6159 5.84304C42.9185 5.66548 43.2608 5.5767 43.6429 5.5767C44.025 5.5767 44.3667 5.66548 44.6678 5.84304C44.9703 6.0206 45.209 6.27699 45.3837 6.61222C45.5598 6.94602 45.6479 7.34801 45.6479 7.81818ZM44.8532 7.81818C44.8532 7.48722 44.8013 7.2081 44.6976 6.98082C44.5953 6.75213 44.4533 6.57955 44.2715 6.46307C44.0897 6.34517 43.8801 6.28622 43.6429 6.28622C43.4057 6.28622 43.1962 6.34517 43.0144 6.46307C42.8326 6.57955 42.6898 6.75213 42.5861 6.98082C42.4838 7.2081 42.4327 7.48722 42.4327 7.81818C42.4327 8.14915 42.4838 8.42898 42.5861 8.65767C42.6898 8.88494 42.8326 9.05753 43.0144 9.17543C43.1962 9.2919 43.4057 9.35014 43.6429 9.35014C43.8801 9.35014 44.0897 9.2919 44.2715 9.17543C44.4533 9.05753 44.5953 8.88494 44.6976 8.65767C44.8013 8.42898 44.8532 8.14915 44.8532 7.81818ZM48.3448 7.50071V8.13565H46.3803V7.50071H48.3448ZM49.5923 5.63636L50.728 9.07102H50.7727L51.9062 5.63636H52.7756L51.2372 10H50.2614L48.7251 5.63636H49.5923ZM57.0151 7.81818C57.0151 8.28835 56.927 8.69105 56.7509 9.02628C56.5762 9.36009 56.3375 9.61577 56.035 9.79332C55.7338 9.97088 55.3922 10.0597 55.0101 10.0597C54.628 10.0597 54.2857 9.97088 53.9831 9.79332C53.682 9.61435 53.4434 9.35795 53.2672 9.02415C53.0925 8.68892 53.0051 8.28693 53.0051 7.81818C53.0051 7.34801 53.0925 6.94602 53.2672 6.61222C53.4434 6.27699 53.682 6.0206 53.9831 5.84304C54.2857 5.66548 54.628 5.5767 55.0101 5.5767C55.3922 5.5767 55.7338 5.66548 56.035 5.84304C56.3375 6.0206 56.5762 6.27699 56.7509 6.61222C56.927 6.94602 57.0151 7.34801 57.0151 7.81818ZM56.2203 7.81818C56.2203 7.48722 56.1685 7.2081 56.0648 6.98082C55.9625 6.75213 55.8205 6.57955 55.6387 6.46307C55.4569 6.34517 55.2473 6.28622 55.0101 6.28622C54.7729 6.28622 54.5634 6.34517 54.3816 6.46307C54.1998 6.57955 54.057 6.75213 53.9533 6.98082C53.851 7.2081 53.7999 7.48722 53.7999 7.81818C53.7999 8.14915 53.851 8.42898 53.9533 8.65767C54.057 8.88494 54.1998 9.05753 54.3816 9.17543C54.5634 9.2919 54.7729 9.35014 55.0101 9.35014C55.2473 9.35014 55.4569 9.2919 55.6387 9.17543C55.8205 9.05753 55.9625 8.88494 56.0648 8.65767C56.1685 8.42898 56.2203 8.14915 56.2203 7.81818ZM57.3773 6.29901V5.63636H60.8588V6.29901H59.5101V10H58.726V6.29901H57.3773ZM61.53 10V5.63636H64.3681V6.29901H62.3205V7.48366H64.2211V8.14631H62.3205V9.33736H64.3851V10H61.53Z" fill="white"/>
<mask id="mask0_1146_204" style="mask-type:luminance" maskUnits="userSpaceOnUse" x="40" y="12" width="14" height="13">
<path d="M41.0314 12.647C41.0314 12.6177 41.0567 12.6128 41.1426 12.6226C41.2286 12.6323 41.3812 12.5786 41.4212 12.5444C41.4611 12.5103 41.5117 12.4615 41.5471 12.4664C41.5825 12.4712 41.6381 12.4705 41.6937 12.466C41.7493 12.4615 41.7898 12.4225 41.8808 12.4029C41.9718 12.3834 41.9617 12.3834 42.0122 12.3785C42.0628 12.3737 41.992 12.4144 42.1285 12.3574C42.265 12.3004 42.2347 12.3102 42.3207 12.2955C42.4066 12.2809 42.4066 12.2809 42.4066 12.2809L45.3593 12.3297C45.3593 12.3297 45.42 12.3412 45.4705 12.3574C45.5211 12.3737 45.4907 12.3704 45.5565 12.3574C45.6222 12.3443 45.6677 12.3574 45.6677 12.3574C45.6677 12.3574 45.693 12.3883 45.693 12.4078C45.693 12.4273 45.698 12.4566 45.7183 12.4859C45.7385 12.5152 45.7284 12.5249 45.7537 12.5494C45.7789 12.5738 45.8093 12.5981 45.8244 12.6031C45.8396 12.6079 45.8851 12.564 45.8396 12.6079C45.7941 12.6518 45.8042 12.7251 45.8093 12.7592C45.8143 12.7934 45.7941 12.808 45.7941 12.8569C45.7941 12.9057 45.8042 12.9301 45.8244 12.9691C45.8446 13.0081 45.8487 13.0521 45.8593 13.0912C45.8699 13.1302 45.9054 13.1742 45.9054 13.2034C45.9054 13.2327 45.9054 13.2571 45.9054 13.2571C45.9054 13.2571 45.9357 13.3059 45.9408 13.3303C45.9458 13.3548 45.9761 13.3938 45.9761 13.3938C45.9761 13.3938 46.0014 13.3449 46.0166 13.3938C46.0317 13.4426 46.0216 13.4768 46.0166 13.506C46.0115 13.5353 46.062 13.506 46.0772 13.5402C46.0924 13.5744 46.0519 13.6085 46.0519 13.6525C46.0519 13.6964 46.079 13.7599 46.0807 13.7745C46.0823 13.7891 46.1228 13.8623 46.1228 13.8623C46.1228 13.8623 46.1531 13.8754 46.1665 13.8884C46.1801 13.9014 46.1665 13.8998 46.1868 13.9242C46.207 13.9486 46.2306 13.9518 46.2373 13.9568C46.2441 13.9616 46.2643 13.947 46.2592 13.9974C46.2542 14.0479 46.2761 14.0804 46.3098 14.1211C46.3435 14.1617 46.3688 14.1812 46.389 14.2057C46.4092 14.2301 46.4193 14.2578 46.4312 14.2773C46.443 14.2968 46.443 14.3065 46.4581 14.3147C46.4733 14.3228 46.4885 14.3342 46.4885 14.3342C46.4885 14.3342 46.5256 14.3749 46.5424 14.4172C46.5592 14.4595 46.5946 14.5279 46.6064 14.5506C46.6182 14.5734 46.6486 14.6303 46.6958 14.6336C46.743 14.6369 46.7766 14.6206 46.8323 14.619C46.8879 14.6174 47.0362 14.6296 47.0615 14.634C47.0867 14.6385 47.1356 14.6466 47.1525 14.6466C47.1693 14.6466 47.1811 14.6531 47.1895 14.6352C47.198 14.6174 47.1811 14.5571 47.1963 14.5392C47.2114 14.5213 47.2604 14.5083 47.2755 14.51C47.2907 14.5116 47.2991 14.466 47.3513 14.466C47.4036 14.466 47.3783 14.4855 47.4642 14.4921C47.5503 14.4985 47.6058 14.4823 47.6328 14.4758C47.6598 14.4692 47.712 14.4725 47.7205 14.4692C47.7288 14.466 47.7558 14.4497 47.7525 14.4188C47.7491 14.3879 47.6733 14.3489 47.7339 14.3277C47.7946 14.3065 47.9513 14.2919 47.9783 14.318C48.0053 14.3439 48.0339 14.4384 48.0626 14.453C48.0912 14.4676 48.6507 14.466 48.6575 14.4627C48.6642 14.4595 48.6811 14.3797 48.6844 14.3635C48.6878 14.3472 48.6794 14.3131 48.6962 14.2952C48.7131 14.2773 48.735 14.261 48.7164 14.2268C48.6979 14.1927 48.676 14.1764 48.6811 14.152C48.6861 14.1276 48.6743 14.1032 48.6946 14.095C48.7148 14.0869 48.7974 14.0658 48.8176 14.0397C48.8378 14.0137 48.8664 13.9112 48.8664 13.8949C48.8664 13.8786 48.8496 13.8363 48.8496 13.7973C48.8496 13.7582 48.8378 13.7452 48.8378 13.6997C48.8378 13.6541 48.8361 13.6151 48.8429 13.5972C48.8496 13.5793 48.8361 13.5532 48.8664 13.5239C48.8968 13.4947 48.8699 13.4816 48.9423 13.4752C49.0148 13.4686 49.608 13.4779 49.6333 13.4643C49.6585 13.4507 49.6585 13.384 49.6974 13.3857C49.7361 13.3873 49.849 13.4036 49.8895 13.4052C49.9299 13.4068 49.9838 13.4182 49.9822 13.4507C49.9805 13.4833 49.9029 13.7371 49.9315 13.768C49.9602 13.7989 51.1804 13.7566 51.1804 13.7566C51.1804 13.7566 51.2377 13.8185 51.2495 13.9226C51.2613 14.0267 51.2057 14.178 51.1922 14.2041C51.1787 14.2301 51.1366 14.3439 51.1484 14.383C51.1602 14.4221 51.1989 14.5766 51.2377 14.6336C51.2764 14.6906 51.3135 14.8028 51.3203 14.8289C51.3271 14.8549 51.3708 14.9086 51.3574 15.0403C51.3438 15.1721 51.29 15.3316 51.2698 15.4438C51.2495 15.5561 51.2512 15.6439 51.2512 15.7221C51.2512 15.8002 51.2175 15.8604 51.2158 15.9108C51.2141 15.9612 51.2309 15.9759 51.2394 16.0247C51.2478 16.0735 51.268 16.0865 51.2781 16.1337C51.2883 16.1809 51.295 16.2216 51.3135 16.2476C51.3321 16.2737 51.3692 16.342 51.3995 16.3696C51.4299 16.3973 51.4568 16.4119 51.4989 16.4282C51.541 16.4444 51.5933 16.4933 51.6034 16.5747C51.6135 16.656 51.6001 16.6853 51.6321 16.7471C51.6641 16.809 51.7433 16.9456 51.7382 17.0286C51.7332 17.1116 51.7248 17.1896 51.7248 17.2255C51.7248 17.2612 51.7589 17.3328 51.7385 17.3475C51.718 17.3621 51.622 17.3702 51.6068 17.4256C51.5916 17.4809 51.5832 17.5444 51.59 17.5899C51.5967 17.6355 51.622 17.6582 51.6321 17.707C51.6422 17.7559 51.6607 17.803 51.6675 17.8291C51.6742 17.8551 51.7248 17.8518 51.7315 17.8454C51.7382 17.8388 51.8124 17.8112 51.8259 17.803C51.8394 17.7949 51.8697 17.7543 51.8899 17.7298C51.9102 17.7054 51.9152 17.6648 51.9304 17.6566C51.9455 17.6485 51.9556 17.6241 51.991 17.6274C52.0264 17.6306 52.0922 17.6566 52.1546 17.668C52.2169 17.6794 52.2691 17.6615 52.2776 17.6566C52.286 17.6517 52.3786 17.6615 52.4107 17.6615C52.4427 17.6615 52.559 17.6453 52.5877 17.629C52.6163 17.6127 52.5826 17.6241 52.6483 17.5948C52.7141 17.5655 52.8169 17.5329 52.891 17.5329C52.9652 17.5329 53.0865 17.5216 53.1152 17.5265C53.1438 17.5313 53.1455 17.5265 53.1725 17.5346C53.1995 17.5427 53.2061 17.5492 53.2365 17.5444C53.2669 17.5395 53.2736 17.515 53.3124 17.5329C53.3511 17.5508 53.3612 17.5541 53.3764 17.5525C53.3916 17.5508 53.4253 17.5444 53.4522 17.5248C53.4792 17.5053 53.4404 17.4874 53.528 17.4792C53.6157 17.4711 53.6174 17.4842 53.6174 17.5427C53.6174 17.6013 53.6258 17.6784 53.6308 17.6903C53.6359 17.7022 53.6242 17.738 53.6308 17.777C53.6376 17.8161 53.646 17.8616 53.6477 17.9072C53.6494 17.9527 53.6646 17.9397 53.6477 17.982C53.6308 18.0243 53.6123 18.052 53.609 18.065C53.6056 18.078 53.528 18.1626 53.5348 18.2228C53.5416 18.283 53.5854 18.3774 53.5854 18.3774C53.5854 18.3774 53.5685 18.4197 53.5719 18.4587C53.5753 18.4978 53.5753 18.6361 53.5786 18.7077C53.582 18.7793 53.6275 18.8802 53.6393 18.9062C53.6511 18.9322 53.6697 18.9631 53.6477 18.9859C53.6258 19.0087 53.5904 19.0396 53.5618 19.1047C53.5331 19.1698 53.5163 19.2104 53.5146 19.23C53.5129 19.2495 53.4995 19.2771 53.4995 19.3081C53.4995 19.339 53.5011 19.3894 53.5061 19.4154C53.5112 19.4414 53.5112 19.4691 53.5163 19.4789C53.5213 19.4887 53.5685 19.5472 53.5735 19.557C53.5786 19.5667 53.5854 19.5928 53.5854 19.6042C53.5854 19.6156 51.4753 19.6221 51.4753 19.6221C51.4753 19.6221 51.4433 19.6123 51.4416 19.6497C51.44 19.6871 51.4214 22.9803 51.4214 23.0014C51.4214 23.0225 51.4416 23.0404 51.4787 23.0893C51.5158 23.1381 51.5714 23.2471 51.5916 23.2731C51.6119 23.2992 51.6658 23.3301 51.7079 23.3691C51.7501 23.4082 51.7804 23.4456 51.7888 23.4765C51.7973 23.5075 51.8107 23.522 51.9051 23.6376C51.9995 23.7531 52.109 23.8508 52.141 23.8817C52.1731 23.9125 52.8068 24.3877 52.8068 24.3877L52.8321 24.412C52.8321 24.412 50.8585 24.8172 50.8299 24.8237C50.8012 24.8302 50.5332 24.77 50.4979 24.7635C50.4625 24.757 50.4052 24.7488 50.3125 24.757C50.2198 24.7651 50.1423 24.7651 50.1035 24.7749C50.0648 24.7846 50.0378 24.7912 49.9889 24.7928C49.94 24.7944 49.9232 24.7846 49.8456 24.7619C49.7681 24.7391 49.699 24.7196 49.6249 24.6919C49.5507 24.6643 49.5136 24.6529 49.4344 24.6545C49.3552 24.6561 48.8547 24.6334 48.7873 24.6252C48.7199 24.6171 48.3844 24.6106 48.3238 24.5927C48.2631 24.5748 48.0844 24.5129 48.0794 24.5065C48.0743 24.4999 47.6867 24.1045 47.6564 24.0753C47.6261 24.046 45.9913 24.0688 45.9913 24.0688C45.9913 24.0688 43.4397 24.0753 43.3976 24.0753C43.3554 24.0753 43.3504 24.0525 43.315 24.0834C43.2796 24.1143 43.2172 24.1468 43.1937 24.1485C43.1701 24.1501 43.138 24.1436 43.1178 24.1387C43.0976 24.1339 43.0302 24.129 43.0116 24.1192C42.9931 24.1094 42.9425 24.0818 42.9324 24.0623C42.9223 24.0428 42.8937 24.0118 42.8937 24.0118C42.8937 24.0118 42.892 24.0118 42.8566 24.0037C42.8212 23.9955 42.8262 24.0118 42.7437 23.9695C42.6611 23.9272 42.597 23.8084 42.5549 23.7677C42.5128 23.7271 42.4824 23.6994 42.4454 23.6978C42.4083 23.6962 42.3864 23.6848 42.3763 23.6962C42.3662 23.7076 42.3072 23.7092 42.2971 23.706C42.2869 23.7027 42.2347 23.6799 42.2061 23.6766C42.1774 23.6734 42.1302 23.6604 42.0712 23.6831C42.0122 23.706 41.8269 23.7808 41.7746 23.8101C41.7224 23.8393 41.6667 23.8638 41.6364 23.88C41.6061 23.8963 41.5859 23.9093 41.5606 23.9061C41.5353 23.9028 41.5033 23.8833 41.4746 23.8946C41.446 23.9061 41.3819 23.9337 41.3634 23.9288C41.3448 23.924 41.3128 23.9109 41.2993 23.9044C41.2859 23.8979 41.1763 23.8247 41.1291 23.8296C41.0819 23.8345 41.0095 23.88 40.9656 23.8898C40.9218 23.8996 40.8662 23.924 40.8393 23.9288C40.8123 23.9337 40.7617 23.9093 40.7617 23.9093C40.7617 23.9093 40.7735 23.854 40.7718 23.8377C40.7701 23.8214 40.7718 23.6344 40.7718 23.6294C40.7718 23.6246 40.7853 23.6018 40.8039 23.5757C40.8224 23.5497 40.8089 23.553 40.8089 23.5009C40.8089 23.4488 40.7836 22.8598 40.782 22.8387C40.7803 22.8176 40.7921 22.8045 40.7786 22.7883C40.7651 22.772 40.6977 22.6988 40.7213 22.637C40.7449 22.5751 40.8055 22.5393 40.8342 22.5328C40.8628 22.5263 40.8949 22.4905 40.9016 22.4775C40.9083 22.4645 40.9134 22.4239 40.9218 22.4157C40.9303 22.4076 40.9454 22.3766 40.9505 22.3636C40.9555 22.3506 40.9656 22.3262 40.9673 22.3067C40.969 22.2871 40.9606 22.2741 40.9673 22.2514C40.9741 22.2286 40.9859 22.1879 40.9859 22.17C40.9859 22.1521 40.9842 22.1163 40.9859 22.1033C40.9876 22.0903 40.9808 22.0772 40.9909 22.0545C41.001 22.0317 40.9707 21.9715 40.9926 21.965C41.0145 21.9585 41.0583 21.9324 41.0769 21.9162C41.0954 21.8999 41.1224 21.8886 41.1123 21.8707C41.1022 21.8528 41.0482 21.8609 41.0432 21.8446C41.0381 21.8283 41.0398 21.7665 41.0482 21.7486C41.0567 21.7307 41.06 21.6624 41.0735 21.6493C41.087 21.6364 41.0904 21.6412 41.0887 21.6201C41.087 21.5989 41.0701 21.6152 41.0819 21.5631C41.0937 21.5111 41.1376 21.3272 41.1493 21.2914C41.1612 21.2556 41.1628 21.1759 41.1662 21.1466C41.1696 21.1173 41.1527 21.1124 41.1763 21.0815C41.1999 21.0506 41.1949 21.0295 41.1965 21.0018C41.1982 20.9741 41.1949 20.9286 41.205 20.9123C41.2151 20.896 41.2269 20.8749 41.2252 20.8667C41.2235 20.8586 41.2067 20.8717 41.2083 20.8423C41.21 20.813 41.2437 20.7269 41.2673 20.6911C41.2909 20.6553 41.3297 20.6032 41.3364 20.5999C41.3432 20.5966 41.3516 20.5999 41.3583 20.5853C41.3651 20.5707 41.3651 20.5641 41.3651 20.5332C41.3651 20.5023 41.3516 20.4047 41.3617 20.3656C41.3718 20.3266 41.3904 20.2078 41.3904 20.1932C41.3904 20.1785 41.3617 20.146 41.3752 20.1249C41.3887 20.1037 41.4982 20.0207 41.5218 19.9947C41.5454 19.9686 41.569 19.8856 41.5909 19.8808C41.6128 19.8759 41.6162 19.884 41.628 19.8759C41.6398 19.8677 41.6432 19.858 41.6583 19.858C41.6735 19.858 41.6971 19.858 41.7055 19.8466C41.7139 19.8352 41.7089 19.8401 41.7173 19.8124C41.7257 19.7848 41.7493 19.6807 41.7696 19.6562C41.7898 19.6318 41.8117 19.6075 41.8066 19.5879C41.8016 19.5684 41.7577 19.5733 41.7577 19.557C41.7577 19.5407 41.8134 19.4887 41.8353 19.4675C41.8572 19.4464 41.8875 19.4252 41.9111 19.4171C41.9347 19.409 41.9549 19.409 41.9785 19.3894C42.0021 19.3699 42.0594 19.3081 42.083 19.2902C42.1066 19.2723 42.1437 19.2381 42.1656 19.2316C42.1875 19.2251 42.2684 19.23 42.2869 19.2153C42.3055 19.2007 42.3358 19.1665 42.3442 19.1437C42.3527 19.1209 42.378 19.0282 42.3948 19.0022C42.4117 18.9761 42.4251 18.9631 42.4471 18.9517C42.469 18.9403 42.5077 18.9371 42.5279 18.9208C42.5482 18.9046 42.6055 18.8704 42.619 18.8427C42.6324 18.8151 42.624 18.7663 42.6426 18.7386C42.6611 18.7109 42.6779 18.6979 42.6813 18.6865C42.6847 18.6751 42.6931 18.6393 42.6965 18.6182C42.6998 18.597 42.6847 18.584 42.6897 18.5645C42.6948 18.545 42.7437 18.3481 42.7454 18.2928C42.747 18.2375 42.7336 18.1675 42.7487 18.1398C42.7639 18.1122 42.7723 18.0748 42.7723 18.0569C42.7723 18.039 42.7723 18.0032 42.769 17.9885C42.7656 17.9739 42.7572 17.9609 42.7572 17.9479C42.7572 17.9348 42.7605 17.9251 42.7706 17.9088C42.7807 17.8925 42.7858 17.7331 42.7858 17.7266C42.7858 17.7201 42.7706 17.7094 42.7757 17.6903C42.7807 17.6712 42.7875 17.6648 42.7909 17.6403C42.7942 17.6159 42.7858 17.5525 42.7723 17.5281C42.7588 17.5037 42.7032 17.4109 42.6796 17.3817C42.656 17.3523 42.6493 17.3003 42.651 17.271C42.6527 17.2417 42.6847 17.2466 42.6577 17.2075C42.6308 17.1685 42.4757 16.9976 42.4757 16.9976L42.4133 16.9244C42.4133 16.9244 42.41 16.8448 42.3965 16.8317C42.383 16.8187 42.324 16.8106 42.3055 16.7553C42.2869 16.6999 42.2987 16.6608 42.2583 16.6121C42.2178 16.5633 42.1774 16.5144 42.1774 16.5144C42.1774 16.5144 42.1791 16.4054 42.1673 16.3843C42.1555 16.3632 42.0796 16.2655 42.0796 16.2346C42.0796 16.2037 42.115 16.1467 42.1083 16.1158C42.1016 16.0849 42.0055 15.7823 41.992 15.7513C41.9785 15.7205 41.9313 15.6342 41.9229 15.6114C41.9145 15.5886 41.8926 15.5919 41.8959 15.5561C41.8993 15.5203 41.9988 15.3251 42.0341 15.3007C42.0695 15.2763 42.0982 15.2568 42.0999 15.2714C42.1016 15.286 42.0662 15.3348 42.0476 15.3544C42.0291 15.3739 41.9499 15.4601 41.9431 15.4927C41.9364 15.5252 41.933 15.5431 41.9718 15.5008C42.0106 15.4585 42.0527 15.395 42.0813 15.3723C42.11 15.3495 42.1386 15.286 42.1605 15.2795C42.1825 15.273 42.2836 15.2535 42.2987 15.2096C42.3139 15.1656 42.2819 15.1249 42.2735 15.094C42.265 15.0632 42.2347 15.0224 42.2431 14.9834C42.2516 14.9443 42.2667 14.9264 42.2701 14.8955C42.2735 14.8647 42.1538 14.7849 42.1403 14.7475C42.1268 14.7101 42.115 14.632 42.1032 14.6027C42.0914 14.5734 42.0375 14.5262 42.019 14.4888C42.0004 14.4513 41.7814 13.9568 41.7814 13.9389C41.7814 13.921 41.8066 13.9177 41.8049 13.9079C41.8033 13.8981 41.7814 13.8868 41.7712 13.8673C41.7611 13.8477 41.7409 13.6395 41.7342 13.5955C41.7274 13.5516 41.5201 13.3075 41.505 13.2864C41.4898 13.2653 41.4443 13.2376 41.4022 13.21C41.36 13.1823 41.3415 13.1774 41.333 13.1481C41.3246 13.1189 41.2269 12.9659 41.2151 12.9512C41.2033 12.9366 41.1038 12.8878 41.1106 12.8454C41.1173 12.8032 41.1325 12.7983 41.1173 12.7739C41.1022 12.7495 41.0314 12.647 41.0314 12.647Z" fill="white"/>
</mask>
<g mask="url(#mask0_1146_204)">
<path d="M54.1113 18.6699H40.0247V12.2542H54.1113V18.6699Z" fill="#D21B32"/>
<path d="M54.1113 25.0078H40.0247V18.6691H54.1113V25.0078Z" fill="#040606"/>
</g>
<path d="M49.0025 21.5057L48.6733 21.8715C48.6733 21.8715 48.592 21.9194 48.7725 21.9586C48.9529 21.9977 49.0521 22.0369 49.1739 22.1197C49.2957 22.2024 49.5122 22.5072 49.5979 22.6249C49.6836 22.7424 49.8234 22.9253 49.9994 22.8121C50.1752 22.6988 50.0129 22.4506 49.9994 22.4114C49.9859 22.3723 49.7558 22.0979 49.5753 21.9411C49.3949 21.7844 49.0025 21.5057 49.0025 21.5057Z" fill="#F2D51C"/>
<path d="M49.1698 21.7707C49.1698 21.7948 49.1495 21.8145 49.1245 21.8145C49.0994 21.8145 49.0791 21.7948 49.0791 21.7707C49.0791 21.7465 49.0994 21.7269 49.1245 21.7269C49.1495 21.7269 49.1698 21.7465 49.1698 21.7707Z" fill="#040606"/>
<path d="M49.5126 22.0539C49.5126 22.078 49.4923 22.0977 49.4672 22.0977C49.4422 22.0977 49.4219 22.078 49.4219 22.0539C49.4219 22.0297 49.4422 22.0101 49.4672 22.0101C49.4923 22.0101 49.5126 22.0297 49.5126 22.0539Z" fill="#040606"/>
<path d="M49.8194 22.3489C49.8194 22.373 49.7992 22.3926 49.774 22.3926C49.749 22.3926 49.7288 22.373 49.7288 22.3489C49.7288 22.3247 49.749 22.3051 49.774 22.3051C49.7992 22.3051 49.8194 22.3247 49.8194 22.3489Z" fill="#040606"/>
<path d="M46.4578 17.4049L47.137 16.9285H46.2975L46.038 16.1576L45.7785 16.9285H44.939L45.6182 17.4049L45.3588 18.1758L46.038 17.6994L46.7172 18.1758L46.4578 17.4049Z" fill="#F2D51C"/>
<path d="M44.8933 18.0752C44.8933 18.0752 44.8572 18.3307 45.2661 18.7023C45.6751 19.0739 46.8419 20.0145 46.8419 20.0145L48.9228 21.4777L48.61 21.8145L45.8555 20.1887C45.8555 20.1887 44.9534 19.6778 44.8331 19.4107C44.7128 19.1436 44.5805 18.8765 44.8933 18.0752Z" fill="#F2D51C"/>
<path d="M48.7512 21.6035C48.7387 21.5948 47.4905 20.7244 47.1223 20.4836C46.7526 20.2418 45.6517 19.3989 45.6406 19.3905L45.6855 19.3359C45.6965 19.3443 46.7953 20.1855 47.1628 20.4258C47.5318 20.6672 48.7809 21.5383 48.7935 21.5471L48.7512 21.6035Z" fill="#040606"/>
<mask id="mask1_1146_204" style="mask-type:luminance" maskUnits="userSpaceOnUse" x="43" y="15" width="8" height="8">
<path d="M43.7508 21.2683L44.4965 20.3857L46.385 16.2401L46.4692 15.0092L48.7065 15.4559L49.8011 16.8324L50.0897 19.0619L49.789 20.3625L48.7937 21.1986L47.66 20.409L46.8114 20.9064L47.3492 21.2595L47.5277 22.0971L45.1942 22.627L43.6064 21.7648L43.7508 21.2683Z" fill="white"/>
</mask>
<g mask="url(#mask1_1146_204)">
<path d="M46.0841 21.1882C44.5566 21.1882 43.3182 19.9928 43.3182 18.518C43.3182 17.0433 44.5566 15.8479 46.0841 15.8479C47.6116 15.8479 48.85 17.0433 48.85 18.518C48.85 19.9928 47.6116 21.1882 46.0841 21.1882ZM46.0841 15.2724C44.2273 15.2724 42.7222 16.7255 42.7222 18.518C42.7222 20.3106 44.2273 21.7637 46.0841 21.7637C47.9408 21.7637 49.446 20.3106 49.446 18.518C49.446 16.7255 47.9408 15.2724 46.0841 15.2724Z" fill="#F2D51C"/>
<path d="M47.1558 15.159L47.0115 15.4605L47.6561 15.748L47.811 15.4242C47.6039 15.3161 47.3847 15.227 47.1558 15.159Z" fill="#F2D51C"/>
<path d="M48.4116 15.8154L48.1582 16.0401L48.6386 16.5449L48.9107 16.3036C48.7625 16.1269 48.5957 15.9632 48.4116 15.8154Z" fill="#F2D51C"/>
<path d="M49.3093 16.8888L48.9858 17.0021L49.228 17.6465L49.5753 17.5248C49.509 17.3067 49.4204 17.0936 49.3093 16.8888Z" fill="#F2D51C"/>
<path d="M49.71 18.2125L49.3664 18.1969L49.333 18.8817L49.7021 18.8984C49.7278 18.6725 49.7309 18.4428 49.71 18.2125Z" fill="#F2D51C"/>
<path d="M49.5522 19.5828L49.2412 19.4407L48.9375 20.0603L49.2715 20.2129C49.3853 20.0139 49.4797 19.8031 49.5522 19.5828Z" fill="#F2D51C"/>
<path d="M48.8605 20.7903L48.63 20.5436L48.1028 21.0026L48.3502 21.2676C48.5346 21.1261 48.7057 20.9667 48.8605 20.7903Z" fill="#F2D51C"/>
<path d="M47.7411 21.6455L47.6267 21.3322L46.957 21.5601L47.0798 21.8965C47.3063 21.8345 47.5279 21.7508 47.7411 21.6455Z" fill="#F2D51C"/>
<path d="M46.3666 22.0206L46.3859 21.689L45.677 21.6505L45.6562 22.0066C45.89 22.0335 46.1279 22.0387 46.3666 22.0206Z" fill="#F2D51C"/>
<path d="M44.9487 21.8555L45.0987 21.5566L44.4597 21.2576L44.2986 21.5786C44.5036 21.6903 44.7211 21.7834 44.9487 21.8555Z" fill="#F2D51C"/>
</g>
</svg>
