<svg width="75" height="75" viewBox="0 0 75 75" fill="none" xmlns="http://www.w3.org/2000/svg">
<g clip-path="url(#clip0_1147_215)">
<mask id="mask0_1147_215" style="mask-type:luminance" maskUnits="userSpaceOnUse" x="0" y="0" width="75" height="75">
<path d="M75 0H0V75H75V0Z" fill="white"/>
</mask>
<g mask="url(#mask0_1147_215)">
<path d="M12.5 31.25V23.4375C12.5 23.0231 12.3354 22.6257 12.0424 22.3326C11.7493 22.0396 11.3519 21.875 10.9375 21.875C10.5231 21.875 10.1257 22.0396 9.83263 22.3326C9.53962 22.6257 9.37501 23.0231 9.37501 23.4375V31.25C8.5462 31.25 7.75136 31.5792 7.16527 32.1653C6.57922 32.7513 6.25 33.5462 6.25 34.375V40.6249C6.25 41.4538 6.57922 42.2488 7.16527 42.8348C7.75136 43.4209 8.5462 43.75 9.37501 43.75V51.5624C9.37501 51.9771 9.53962 52.3742 9.83263 52.6672C10.1257 52.9602 10.5231 53.125 10.9375 53.125C11.3519 53.125 11.7493 52.9602 12.0424 52.6672C12.3354 52.3742 12.5 51.9771 12.5 51.5624V43.75C13.3288 43.75 14.1236 43.4209 14.7097 42.8348C15.2957 42.2488 15.625 41.4538 15.625 40.6249V34.375C15.625 33.5462 15.2957 32.7513 14.7097 32.1653C14.1236 31.5792 13.3288 31.25 12.5 31.25ZM12.5 40.6249H9.37501V34.375H12.5V40.6249ZM54.6874 62.5H43.7498C43.7498 61.6711 43.4207 60.8764 42.8347 60.2904C42.2486 59.7044 41.4539 59.3749 40.6251 59.3749H34.375C33.5462 59.3749 32.7513 59.7044 32.1653 60.2904C31.5793 60.8764 31.25 61.6711 31.25 62.5H20.3125C19.8981 62.5 19.5007 62.6648 19.2076 62.9578C18.9146 63.2508 18.75 63.6479 18.75 64.0626C18.75 64.4768 18.9146 64.8744 19.2076 65.1674C19.5007 65.4604 19.8981 65.6251 20.3125 65.6251H31.25C31.25 66.4536 31.5793 67.2487 32.1653 67.8347C32.7513 68.4207 33.5462 68.7499 34.375 68.7499H40.6251C41.4539 68.7499 42.2486 68.4207 42.8347 67.8347C43.4207 67.2487 43.7498 66.4536 43.7498 65.6251H54.6874C55.102 65.6251 55.4992 65.4604 55.7922 65.1674C56.0856 64.8744 56.2499 64.4768 56.2499 64.0626C56.2499 63.6479 56.0856 63.2508 55.7922 62.9578C55.4992 62.6648 55.102 62.5 54.6874 62.5ZM40.6251 65.6251H34.375V62.5H40.6251V65.6251ZM65.6249 31.25V23.4375C65.6249 23.0231 65.4606 22.6257 65.1672 22.3326C64.8742 22.0396 64.477 21.875 64.0624 21.875C63.6481 21.875 63.2506 22.0396 62.9576 22.3326C62.6646 22.6257 62.4998 23.0231 62.4998 23.4375V31.25C61.6713 31.25 60.8762 31.5792 60.2902 32.1653C59.7042 32.7513 59.3751 33.5462 59.3751 34.375V40.6249C59.3751 41.4538 59.7042 42.2488 60.2902 42.8348C60.8762 43.4209 61.6713 43.75 62.4998 43.75V51.5624C62.4998 51.9771 62.6646 52.3742 62.9576 52.6672C63.2506 52.9602 63.6481 53.125 64.0624 53.125C64.477 53.125 64.8742 52.9602 65.1672 52.6672C65.4606 52.3742 65.6249 51.9771 65.6249 51.5624V43.75C66.4538 43.75 67.2485 43.4209 67.8345 42.8348C68.4209 42.2488 68.7501 41.4538 68.7501 40.6249V34.375C68.7501 33.5462 68.4209 32.7513 67.8345 32.1653C67.2485 31.5792 66.4538 31.25 65.6249 31.25ZM65.6249 40.6249H62.4998V34.375H65.6249V40.6249ZM54.6874 9.37501H43.7498C43.7498 8.5462 43.4207 7.75136 42.8347 7.16531C42.2486 6.57926 41.4539 6.25 40.6251 6.25H34.375C33.5462 6.25 32.7513 6.57926 32.1653 7.16531C31.5793 7.75136 31.25 8.5462 31.25 9.37501H20.3125C19.8981 9.37501 19.5007 9.53962 19.2076 9.83263C18.9146 10.1257 18.75 10.5231 18.75 10.9375C18.75 11.3519 18.9146 11.7493 19.2076 12.0424C19.5007 12.3354 19.8981 12.5 20.3125 12.5H31.25C31.25 13.3288 31.5793 14.1237 32.1653 14.7097C32.7513 15.2958 33.5462 15.625 34.375 15.625H40.6251C41.4539 15.625 42.2486 15.2958 42.8347 14.7097C43.4207 14.1237 43.7498 13.3288 43.7498 12.5H54.6874C55.102 12.5 55.4992 12.3354 55.7922 12.0424C56.0856 11.7493 56.2499 11.3519 56.2499 10.9375C56.2499 10.5231 56.0856 10.1257 55.7922 9.83263C55.4992 9.53962 55.102 9.37501 54.6874 9.37501ZM40.6251 12.5H34.375V9.37501H40.6251V12.5Z" fill="#808692"/>
<path d="M21.7656 5.68755C21.4375 4.87506 21.7656 5.20319 11.6406 0.171937L11.2188 6.21618e-05C11.0342 -0.0468957 10.8408 -0.0468957 10.6563 6.21618e-05L10.2344 0.171937C0.203125 5.18757 0.718749 4.85944 0.406251 5.21882C0.156418 5.50572 0.0129636 5.86984 0 6.25005V18.7501C0.000874539 19.0386 0.0816307 19.3213 0.233317 19.5667C0.385004 19.8122 0.601694 20.0108 0.859376 20.1407L10.3125 24.8282C10.5077 24.9212 10.7213 24.9695 10.9375 24.9695C11.1537 24.9695 11.3673 24.9212 11.5625 24.8282C12.0625 24.6094 9.46873 25.8907 20.9375 20.1407C21.2098 20.022 21.4426 19.8281 21.6086 19.5818C21.7747 19.3355 21.8671 19.047 21.875 18.7501C21.875 5.15633 21.875 6.12507 21.7656 5.68755ZM10.9375 9.18756L5.0625 6.25005L10.9375 3.31256L16.8125 6.25005L10.9375 9.18756ZM3.125 8.78132L9.375 11.9063V20.9063L3.125 17.7813V8.78132ZM18.75 17.7813L12.5 20.9063V11.9063L18.75 8.78132V17.7813ZM21.7656 55.6874C21.4375 54.8593 21.7656 55.2343 11.6406 50.172L11.2188 49.9999C11.0342 49.9532 10.8408 49.9532 10.6563 49.9999L10.2344 50.125C0 55.3124 0.703127 54.8749 0.406251 55.2188C0.156418 55.5056 0.0129636 55.8697 0 56.2501V68.7499C0.000874539 69.0386 0.0816307 69.3211 0.233317 69.5667C0.385004 69.8123 0.601694 70.0109 0.859376 70.1407L10.3125 74.8284C10.5077 74.9212 10.7213 74.9694 10.9375 74.9694C11.1537 74.9694 11.3673 74.9212 11.5625 74.8284C12.0625 74.6096 9.46873 75.8908 20.9375 70.1407C21.2098 70.0222 21.4426 69.8282 21.6086 69.5819C21.7747 69.3355 21.8671 69.0472 21.875 68.7499C21.875 55.1562 21.875 56.125 21.7656 55.6874ZM10.9375 59.1876L5.0625 56.2501L10.9375 53.3127L16.8125 56.2501L10.9375 59.1876ZM3.125 58.7815L9.375 61.9062V70.9062L3.125 67.7815V58.7815ZM18.75 67.7815L12.5 70.9062V61.9062L18.75 58.7815V67.7815ZM75 5.79694C74.9394 5.59626 74.8387 5.40981 74.7047 5.24878C74.5706 5.0877 74.4051 4.9553 74.2189 4.85944C64.4063 6.21271e-05 64.6407 6.21618e-05 64.0624 6.21618e-05C63.4842 6.21618e-05 63.703 6.24977e-05 53.9845 4.84382C53.7979 4.93968 53.6328 5.07208 53.4983 5.23315C53.3643 5.39419 53.2636 5.58064 53.203 5.78132C53.0938 6.14069 53.203 5.15633 53.203 18.7344C53.2041 19.023 53.2846 19.3056 53.4365 19.5511C53.5881 19.7966 53.8049 19.9952 54.0626 20.125L63.5157 24.8125C63.7108 24.9056 63.9245 24.9538 64.1405 24.9538C64.357 24.9538 64.5703 24.9056 64.7658 24.8125C65.2655 24.5938 62.672 25.8751 74.2189 20.125C74.4595 19.9861 74.6588 19.7854 74.7964 19.5437C74.9335 19.302 75.0039 19.028 75 18.7501C75 5.01569 75 6.14069 75 5.79694ZM64.0624 9.18756L58.1876 6.25005L64.0624 3.31256L69.9377 6.25005L64.0624 9.18756ZM56.25 8.78132L62.4999 11.9063V20.9063L56.25 17.7813V8.78132ZM71.8749 17.7813L65.625 20.9063V11.9063L71.8749 8.78132V17.7813ZM74.8908 55.6874C74.5624 54.8593 74.8908 55.2188 64.7658 50.172L64.3438 49.9999C64.1592 49.9532 63.9657 49.9532 63.7811 49.9999L63.3595 50.125C52.8595 55.375 53.8123 54.8127 53.5313 55.1718C53.271 55.471 53.1272 55.8538 53.1249 56.2501V68.7499C53.126 69.0386 53.2065 69.3211 53.3584 69.5667C53.51 69.8123 53.7268 70.0109 53.9845 70.1407L63.4376 74.8284C63.6326 74.9212 63.8464 74.9694 64.0624 74.9694C64.2789 74.9694 64.4922 74.9212 64.6877 74.8284C65.1874 74.6096 62.5939 75.8908 74.1408 70.1407C74.3984 70.0109 74.6149 69.8123 74.7668 69.5667C74.9184 69.3211 74.9992 69.0386 75 68.7499C75 55.1562 75 56.125 74.8908 55.6874ZM64.0624 59.1876L58.1876 56.2501L64.0624 53.3127L69.9377 56.2501L64.0624 59.1876ZM56.25 58.7815L62.4999 61.9062V70.9062L56.25 67.7815V58.7815ZM71.8749 67.7815L65.625 70.9062V61.9062L71.8749 58.7815V67.7815Z" fill="#808692"/>
<path d="M23.4375 46.875L35.9375 52.4374V35.3906L23.4375 29.8281V46.875Z" fill="#808692"/>
<path d="M37.5 21.875L25.3594 27.2656L37.5 32.6719L49.6406 27.2656L37.5 21.875Z" fill="#808692"/>
<path d="M39.0625 35.3906V52.4374L51.5626 46.875V29.8281L39.0625 35.3906Z" fill="#808692"/>
</g>
</g>
<defs>
<clipPath id="clip0_1147_215">
<rect width="75" height="75" fill="white"/>
</clipPath>
</defs>
</svg>
