<svg width="232" height="208" viewBox="0 0 132 108" fill="none" xmlns="http://www.w3.org/2000/svg">
<mask id="mask0_834_727" style="mask-type:luminance" maskUnits="userSpaceOnUse" x="21" y="6" width="97" height="97">
<path d="M24.2768 8.88145C24.2768 8.65638 24.464 8.61925 25.1006 8.69408C25.7372 8.76891 26.8678 8.35707 27.1638 8.09487C27.4597 7.83327 27.8342 7.45853 28.0964 7.49624C28.3585 7.53336 28.7704 7.52806 29.1823 7.49329C29.5942 7.45853 29.8938 7.15922 30.5678 7.00956C31.2419 6.85991 31.167 6.85991 31.5415 6.82221C31.916 6.78509 31.3917 7.09736 32.4027 6.66018C33.4138 6.22299 33.1891 6.29841 33.8258 6.18587C34.4623 6.07333 34.4623 6.07333 34.4623 6.07333L56.3313 6.44806C56.3313 6.44806 56.7807 6.53586 57.1551 6.66018C57.5296 6.78509 57.3049 6.76034 57.7917 6.66018C58.2785 6.56001 58.6155 6.66018 58.6155 6.66018C58.6155 6.66018 58.8028 6.89703 58.8028 7.04669C58.8028 7.19634 58.8402 7.42141 58.9901 7.6459C59.1398 7.87038 59.0649 7.94521 59.2524 8.13257C59.4392 8.31994 59.6643 8.50672 59.7763 8.54442C59.8889 8.58154 60.226 8.24512 59.8889 8.58155C59.5518 8.91857 59.6266 9.48008 59.6643 9.74227C59.7015 10.0045 59.5518 10.1164 59.5518 10.4911C59.5518 10.8653 59.6266 11.0526 59.7763 11.352C59.926 11.6513 59.9561 11.9883 60.0345 12.2882C60.1134 12.5875 60.3757 12.9245 60.3757 13.149C60.3757 13.3735 60.3757 13.5609 60.3757 13.5609C60.3757 13.5609 60.6002 13.935 60.638 14.1224C60.6751 14.3097 60.8996 14.609 60.8996 14.609C60.8996 14.609 61.0871 14.2343 61.1996 14.609C61.3116 14.9832 61.2368 15.2454 61.1996 15.4699C61.1619 15.6943 61.5362 15.4699 61.6487 15.7321C61.7613 15.9942 61.4613 16.2558 61.4613 16.5929C61.4613 16.9299 61.6617 17.4166 61.6741 17.5291C61.6865 17.6411 61.9859 18.2026 61.9859 18.2026C61.9859 18.2026 62.2104 18.3027 62.31 18.4023C62.4102 18.5025 62.31 18.4901 62.4603 18.6769C62.61 18.8642 62.7845 18.889 62.8345 18.9267C62.8846 18.9638 63.0343 18.8519 62.9966 19.2384C62.9595 19.6255 63.1216 19.8747 63.3715 20.187C63.6208 20.4987 63.8082 20.6483 63.9579 20.8357C64.1076 21.0231 64.1824 21.2352 64.2703 21.3848C64.3575 21.5345 64.3575 21.6093 64.4695 21.6718C64.582 21.7342 64.6946 21.8214 64.6946 21.8214C64.6946 21.8214 64.9692 22.1337 65.0936 22.4583C65.2185 22.7824 65.4808 23.3068 65.568 23.4812C65.6553 23.6562 65.8804 24.0928 66.2299 24.1175C66.5794 24.1429 66.8287 24.0179 67.2407 24.0056C67.6527 23.9932 68.7512 24.0869 68.9387 24.1211C69.1255 24.1552 69.4874 24.2177 69.6123 24.2177C69.7373 24.2177 69.8245 24.2672 69.887 24.1299C69.9494 23.9932 69.8245 23.5313 69.937 23.394C70.049 23.2567 70.4115 23.1565 70.5235 23.1695C70.636 23.1819 70.6985 22.8325 71.0851 22.8325C71.4724 22.8325 71.2849 22.9821 71.9215 23.0322C72.5586 23.0817 72.9699 22.9574 73.1697 22.9073C73.3695 22.8572 73.7567 22.8826 73.8192 22.8572C73.8811 22.8325 74.0809 22.7076 74.0562 22.4707C74.0314 22.2333 73.4697 21.9339 73.9188 21.7719C74.3679 21.6093 75.529 21.4974 75.7288 21.6971C75.9286 21.8962 76.1408 22.6204 76.3529 22.7323C76.5651 22.8448 80.709 22.8325 80.7591 22.8071C80.8091 22.7824 80.9341 22.1708 80.9589 22.0465C80.9836 21.9216 80.9211 21.6594 81.0461 21.5221C81.171 21.3848 81.3331 21.2599 81.1958 20.9977C81.0585 20.7361 80.8964 20.6112 80.9341 20.4238C80.9712 20.2371 80.884 20.0497 81.0337 19.9872C81.1834 19.9248 81.7952 19.7628 81.9449 19.563C82.0946 19.3633 82.3067 18.5773 82.3067 18.4524C82.3067 18.3275 82.1824 18.0028 82.1824 17.7035C82.1824 17.4042 82.0946 17.304 82.0946 16.9552C82.0946 16.6052 82.0822 16.3059 82.1323 16.1686C82.1824 16.0314 82.0822 15.8316 82.3067 15.6071C82.5319 15.3827 82.3321 15.2825 82.8684 15.233C83.4053 15.1829 87.7991 15.2542 87.9865 15.1499C88.1733 15.0456 88.1733 14.5342 88.4609 14.5466C88.748 14.559 89.5843 14.6839 89.8837 14.6962C90.1831 14.7086 90.5827 14.7964 90.5703 15.0456C90.5579 15.2955 89.9833 17.2422 90.1955 17.479C90.4076 17.7159 99.445 17.3918 99.445 17.3918C99.445 17.3918 99.8694 17.8661 99.9566 18.6645C100.044 19.4629 99.6325 20.6236 99.5323 20.8233C99.4327 21.023 99.1203 21.8962 99.2081 22.1961C99.2953 22.4955 99.5824 23.6809 99.8694 24.1175C100.156 24.5547 100.431 25.4155 100.481 25.6153C100.531 25.815 100.855 26.2268 100.756 27.2373C100.656 28.2478 100.257 29.471 100.107 30.3318C99.9566 31.1932 99.9696 31.8666 99.9696 32.4659C99.9696 33.0651 99.7197 33.5264 99.7073 33.9135C99.6949 34.3 99.8193 34.4126 99.8817 34.7867C99.9442 35.1614 100.094 35.261 100.169 35.6228C100.244 35.9846 100.294 36.2968 100.431 36.4966C100.568 36.6963 100.843 37.2201 101.068 37.4322C101.293 37.6443 101.492 37.7569 101.804 37.8818C102.116 38.0061 102.503 38.3808 102.578 39.0048C102.653 39.6287 102.553 39.8532 102.79 40.3275C103.028 40.8018 103.614 41.85 103.577 42.4864C103.539 43.1227 103.477 43.7213 103.477 43.9965C103.477 44.2704 103.73 44.8196 103.578 44.9321C103.427 45.0441 102.715 45.1065 102.603 45.5313C102.491 45.9556 102.428 46.4422 102.479 46.7916C102.528 47.141 102.715 47.3154 102.79 47.6896C102.865 48.0643 103.002 48.4261 103.053 48.6258C103.103 48.8255 103.477 48.8002 103.527 48.7507C103.577 48.7006 104.126 48.4885 104.226 48.4261C104.326 48.3636 104.55 48.0519 104.7 47.8646C104.85 47.6772 104.887 47.3655 105 47.303C105.112 47.2406 105.187 47.0532 105.449 47.0786C105.711 47.1033 106.198 47.303 106.66 47.3902C107.122 47.4775 107.509 47.3402 107.571 47.303C107.634 47.2653 108.32 47.3402 108.557 47.3402C108.794 47.3402 109.656 47.2158 109.868 47.0909C110.08 46.966 109.83 47.0532 110.317 46.8287C110.804 46.6043 111.565 46.3544 112.115 46.3544C112.664 46.3544 113.563 46.2672 113.775 46.305C113.987 46.3421 114 46.305 114.199 46.3668C114.399 46.4293 114.449 46.4794 114.674 46.4422C114.898 46.4045 114.948 46.2172 115.235 46.3544C115.522 46.4917 115.597 46.5171 115.709 46.5041C115.822 46.4917 116.072 46.4422 116.271 46.292C116.471 46.1423 116.184 46.005 116.833 45.9426C117.482 45.8801 117.494 45.9803 117.494 46.4293C117.494 46.8788 117.557 47.4704 117.594 47.5617C117.632 47.6524 117.545 47.927 117.594 48.2263C117.644 48.5262 117.707 48.875 117.719 49.2247C117.731 49.5741 117.844 49.4743 117.719 49.7987C117.594 50.1232 117.457 50.3353 117.432 50.4352C117.407 50.535 116.833 51.1839 116.883 51.6456C116.933 52.1073 117.258 52.831 117.258 52.831C117.258 52.831 117.133 53.1555 117.157 53.455C117.183 53.7545 117.183 54.8151 117.207 55.3642C117.232 55.9133 117.569 56.687 117.657 56.8866C117.744 57.0863 117.882 57.3234 117.719 57.4981C117.557 57.6728 117.295 57.9099 117.083 58.409C116.87 58.9081 116.745 59.2202 116.733 59.3698C116.721 59.5195 116.621 59.7316 116.621 59.969C116.621 60.2059 116.633 60.593 116.671 60.7922C116.708 60.9919 116.708 61.204 116.745 61.2788C116.783 61.3542 117.133 61.8032 117.17 61.878C117.207 61.9529 117.258 62.1526 117.258 62.2398C117.258 62.3276 101.629 62.3771 101.629 62.3771C101.629 62.3771 101.392 62.3023 101.38 62.5892C101.368 62.8761 101.23 88.1333 101.23 88.2953C101.23 88.4574 101.38 88.5946 101.655 88.9694C101.929 89.3435 102.341 90.1796 102.491 90.3793C102.641 90.5791 103.04 90.8159 103.352 91.1152C103.664 91.4151 103.889 91.7021 103.951 91.9389C104.014 92.1764 104.113 92.2883 104.812 93.1745C105.511 94.0606 106.323 94.8095 106.56 95.0464C106.797 95.2832 111.491 98.9274 111.491 98.9274L111.678 99.1142C111.678 99.1142 97.061 102.222 96.8489 102.272C96.6367 102.321 94.6517 101.86 94.39 101.81C94.1277 101.76 93.7034 101.697 93.0168 101.76C92.3302 101.822 91.7561 101.822 91.4691 101.897C91.1821 101.972 90.9823 102.022 90.6204 102.034C90.2579 102.047 90.1336 101.972 89.5589 101.797C88.9849 101.622 88.4733 101.473 87.924 101.261C87.3747 101.049 87.1001 100.961 86.5137 100.974C85.9267 100.986 82.2195 100.812 81.7203 100.749C81.2211 100.687 78.7369 100.637 78.2878 100.499C77.8381 100.362 76.515 99.8878 76.4779 99.8383C76.4402 99.7882 73.5693 96.7556 73.3448 96.5311C73.1202 96.3066 61.0122 96.4816 61.0122 96.4816C61.0122 96.4816 42.114 96.5311 41.8019 96.5311C41.4899 96.5311 41.4524 96.3567 41.1903 96.5936C40.9281 96.8304 40.4663 97.0803 40.2916 97.0926C40.1168 97.105 39.8797 97.0555 39.7298 97.0178C39.5801 96.9807 39.0808 96.943 38.9435 96.8682C38.8062 96.7933 38.4317 96.5812 38.3568 96.4316C38.2819 96.2819 38.0697 96.0445 38.0697 96.0445C38.0697 96.0445 38.0572 96.0445 37.7951 95.982C37.533 95.9195 37.5704 96.0445 36.9588 95.7204C36.3471 95.3957 35.8728 94.4848 35.5608 94.1726C35.2487 93.8609 35.0241 93.6488 34.7494 93.6364C34.4748 93.624 34.3125 93.5362 34.2377 93.624C34.1628 93.7112 33.7259 93.7236 33.651 93.6989C33.5761 93.6735 33.1891 93.4991 32.9769 93.4738C32.7647 93.449 32.4152 93.3495 31.9783 93.5239C31.5415 93.6989 30.1684 94.2727 29.7814 94.4972C29.3945 94.7217 28.9826 94.9091 28.7579 95.034C28.5332 95.1583 28.3835 95.2585 28.1962 95.2337C28.009 95.2084 27.7718 95.0587 27.5596 95.1459C27.3475 95.2337 26.8731 95.4458 26.7358 95.4081C26.5985 95.371 26.3613 95.2708 26.2614 95.2208C26.1617 95.1713 25.3503 94.6098 25.0008 94.6469C24.6513 94.6846 24.1145 95.034 23.79 95.1088C23.4654 95.1836 23.0536 95.371 22.8538 95.4081C22.6541 95.4458 22.2797 95.2585 22.2797 95.2585C22.2797 95.2585 22.367 94.8342 22.3545 94.7093C22.342 94.5844 22.3545 93.1497 22.3545 93.112C22.3545 93.0749 22.4543 92.8999 22.5917 92.7002C22.729 92.5004 22.6291 92.5258 22.6291 92.1263C22.6291 91.7268 22.4418 87.2094 22.4294 87.0474C22.4169 86.8854 22.5043 86.7852 22.4044 86.6609C22.3046 86.536 21.8053 85.9745 21.98 85.5002C22.1548 85.0259 22.6042 84.7513 22.8163 84.7012C23.0286 84.6517 23.2657 84.3772 23.3156 84.277C23.3656 84.1774 23.403 83.8657 23.4654 83.8033C23.5279 83.7408 23.6402 83.5034 23.6776 83.4038C23.7151 83.3036 23.79 83.1169 23.8025 82.9672C23.815 82.817 23.7525 82.7174 23.8025 82.543C23.8524 82.368 23.9398 82.0563 23.9398 81.9184C23.9398 81.7817 23.9273 81.5072 23.9398 81.407C23.9522 81.3074 23.9023 81.2073 23.9772 81.0329C24.0521 80.8579 23.8275 80.3965 23.9896 80.3465C24.152 80.2964 24.4765 80.0966 24.6138 79.9723C24.7511 79.8474 24.9509 79.7602 24.8759 79.6229C24.801 79.4856 24.4016 79.5481 24.3641 79.4232C24.3267 79.2983 24.3392 78.824 24.4016 78.6867C24.464 78.5494 24.489 78.0256 24.5888 77.9254C24.6887 77.8259 24.7137 77.863 24.7012 77.701C24.6887 77.5389 24.5639 77.6638 24.6513 77.2644C24.7386 76.8649 25.0632 75.4549 25.1505 75.1804C25.2379 74.9058 25.2504 74.2942 25.2754 74.0697C25.3003 73.8452 25.1755 73.8075 25.3503 73.5707C25.525 73.3332 25.4875 73.1712 25.5 72.9591C25.5125 72.747 25.4875 72.3976 25.5624 72.2727C25.6374 72.1478 25.7247 71.9857 25.7123 71.9233C25.6998 71.8608 25.5749 71.961 25.5874 71.7359C25.5999 71.5114 25.8496 70.8503 26.0243 70.5758C26.199 70.3012 26.4861 69.9017 26.5361 69.877C26.586 69.8517 26.6484 69.877 26.6983 69.7645C26.7483 69.6525 26.7483 69.6024 26.7483 69.365C26.7483 69.1281 26.6484 68.3793 26.7233 68.0799C26.7982 67.7806 26.9355 66.8697 26.9355 66.7572C26.9355 66.6447 26.7233 66.3954 26.8232 66.2334C26.923 66.0708 27.7344 65.4344 27.9091 65.2347C28.0839 65.035 28.2586 64.3986 28.4209 64.3615C28.5831 64.3238 28.6081 64.3863 28.6955 64.3238C28.7829 64.2613 28.8079 64.1865 28.9202 64.1865C29.0325 64.1865 29.2073 64.1865 29.2697 64.0993C29.3321 64.0121 29.2947 64.0492 29.3571 63.8371C29.4195 63.625 29.5942 62.8267 29.744 62.6393C29.8938 62.4519 30.0561 62.2651 30.0186 62.1149C29.9812 61.9652 29.6566 62.003 29.6566 61.878C29.6566 61.7531 30.0686 61.3542 30.2308 61.1916C30.3931 61.0296 30.6178 60.867 30.7925 60.8051C30.9673 60.7427 31.1171 60.7427 31.2918 60.593C31.4666 60.4428 31.891 59.969 32.0657 59.8318C32.2405 59.6945 32.5151 59.4323 32.6774 59.3822C32.8396 59.3327 33.4388 59.3698 33.5761 59.2573C33.7134 59.1453 33.9381 58.8831 34.0004 58.7085C34.0629 58.5338 34.2502 57.8225 34.3749 57.6228C34.4998 57.4232 34.5996 57.3234 34.7619 57.236C34.9242 57.1487 35.2113 57.1237 35.361 56.999C35.5108 56.8741 35.9352 56.6121 36.0351 56.4C36.135 56.1878 36.0726 55.8135 36.2099 55.6013C36.3471 55.3891 36.472 55.2893 36.4969 55.202C36.5219 55.1146 36.5843 54.8401 36.6093 54.6779C36.6342 54.5157 36.5219 54.4158 36.5593 54.2661C36.5968 54.1164 36.9588 52.6064 36.9713 52.1821C36.9838 51.7579 36.8839 51.2213 36.9962 51.0092C37.1086 50.797 37.171 50.51 37.171 50.3728C37.171 50.2355 37.171 49.9609 37.146 49.8486C37.121 49.7363 37.0586 49.6365 37.0586 49.5367C37.0586 49.4368 37.0836 49.362 37.1585 49.2372C37.2334 49.1124 37.2709 47.8893 37.2709 47.8398C37.2709 47.7897 37.1585 47.7078 37.196 47.5617C37.2334 47.415 37.2834 47.3655 37.3083 47.1781C37.3332 46.9908 37.2709 46.5041 37.171 46.3173C37.0711 46.13 36.6592 45.4188 36.4844 45.1943C36.3097 44.9692 36.2597 44.5703 36.2722 44.3453C36.2847 44.1208 36.5219 44.1585 36.3222 43.8586C36.1225 43.5593 34.9741 42.2489 34.9741 42.2489L34.5123 41.6874C34.5123 41.6874 34.4873 41.0764 34.3874 40.9762C34.2876 40.8767 33.8507 40.8142 33.7134 40.39C33.5761 39.9658 33.6634 39.6659 33.3639 39.2917C33.0643 38.9176 32.7647 38.5429 32.7647 38.5429C32.7647 38.5429 32.7772 37.7068 32.6899 37.5448C32.6025 37.3827 32.0407 36.6339 32.0407 36.3964C32.0407 36.1595 32.3029 35.723 32.253 35.4855C32.203 35.2486 31.4916 32.9278 31.3917 32.6904C31.2918 32.4535 30.9423 31.7918 30.8799 31.6174C30.8175 31.4424 30.6552 31.4678 30.6802 31.1932C30.7052 30.9186 31.4416 29.4209 31.7037 29.2341C31.9658 29.0467 32.1781 28.8971 32.1906 29.009C32.203 29.1216 31.9409 29.4957 31.8036 29.646C31.6663 29.7956 31.0797 30.4567 31.0297 30.7065C30.9798 30.9558 30.9548 31.093 31.2419 30.769C31.529 30.4443 31.8411 29.9576 32.0532 29.7832C32.2655 29.6083 32.4776 29.1216 32.6399 29.0715C32.8022 29.022 33.5511 28.8718 33.6634 28.5353C33.7758 28.1983 33.5386 27.886 33.4762 27.6492C33.4138 27.4123 33.1891 27.1 33.2515 26.8007C33.314 26.5008 33.4263 26.3635 33.4513 26.1267C33.4762 25.8898 32.59 25.2782 32.4901 24.9913C32.3903 24.7044 32.3029 24.1051 32.2155 23.8807C32.1281 23.6562 31.7287 23.2938 31.5914 23.0069C31.4541 22.7199 29.8314 18.9267 29.8314 18.7894C29.8314 18.6521 30.0186 18.6268 30.0061 18.552C29.9937 18.4771 29.8314 18.3899 29.7565 18.2403C29.6816 18.0906 29.5318 16.4933 29.4819 16.1563C29.4319 15.8193 27.8966 13.9474 27.7843 13.7853C27.672 13.6233 27.335 13.4112 27.0229 13.1991C26.7108 12.987 26.5735 12.9493 26.5111 12.7248C26.4487 12.5003 25.7247 11.3272 25.6374 11.2147C25.5499 11.1021 24.8135 10.728 24.8634 10.4033C24.9134 10.0793 25.0257 10.0416 24.9134 9.8548C24.801 9.66744 24.2768 8.88145 24.2768 8.88145Z" fill="white"/>
</mask>
<g mask="url(#mask0_834_727)">
<path d="M121.151 55.0742H16.8191V5.86865H121.151V55.0742Z" fill="#ECC8CC" fill-opacity="0.4"/>
<path d="M121.151 103.689H16.8191V55.0746H121.151V103.689Z" fill="#9B9B9B" fill-opacity="0.4"/>
</g>
<path d="M83.3134 76.8445L80.8746 79.6497C80.8746 79.6497 80.2728 80.0173 81.6095 80.3178C82.9456 80.6183 83.6806 80.9188 84.5823 81.5534C85.4846 82.1879 87.0883 84.5259 87.7231 85.4279C88.3578 86.3294 89.3933 87.7323 90.6964 86.8638C91.9989 85.9953 90.7966 84.0916 90.6964 83.7911C90.5962 83.4906 88.8924 81.3866 87.5557 80.1841C86.2196 78.9821 83.3134 76.8445 83.3134 76.8445Z" fill="#F2F2F2"/>
<path d="M84.5493 78.869C84.5493 79.0535 84.3996 79.2031 84.2152 79.2031C84.0307 79.2031 83.881 79.0535 83.881 78.869C83.881 78.6846 84.0307 78.535 84.2152 78.535C84.3996 78.535 84.5493 78.6846 84.5493 78.869Z" fill="#040606" fill-opacity="0.4"/>
<path d="M87.0883 81.0409C87.0883 81.2253 86.9386 81.375 86.7541 81.375C86.5696 81.375 86.4199 81.2253 86.4199 81.0409C86.4199 80.8565 86.5696 80.7068 86.7541 80.7068C86.9386 80.7068 87.0883 80.8565 87.0883 81.0409Z" fill="#040606" fill-opacity="0.4"/>
<path d="M89.3598 83.311C89.3598 83.4955 89.2107 83.6445 89.0256 83.6445C88.8411 83.6445 88.692 83.4955 88.692 83.311C88.692 83.1266 88.8411 82.977 89.0256 82.977C89.2107 82.977 89.3598 83.1266 89.3598 83.311Z" fill="#040606" fill-opacity="0.4"/>
<path d="M64.4671 45.3884L69.4974 41.7348H63.2795L61.3576 35.8222L59.4362 41.7348H53.2179L58.2486 45.3884L56.3271 51.3008L61.3576 47.6468L66.3884 51.3008L64.4671 45.3884Z" fill="#F2F2F2"/>
<path d="M52.8786 50.525C52.8786 50.525 52.6113 52.4843 55.6403 55.3344C58.6693 58.1843 67.3109 65.3982 67.3109 65.3982L82.7229 76.6201L80.4067 79.2031L60.0056 66.7339C60.0056 66.7339 53.324 62.8158 52.4332 60.7671C51.5423 58.7187 50.5623 56.6702 52.8786 50.525Z" fill="#F2F2F2"/>
<path d="M81.4527 77.5938C81.3596 77.5266 72.1147 70.851 69.3883 69.0044C66.6495 67.1496 58.4961 60.6855 58.4141 60.6207L58.7463 60.2018C58.8281 60.2666 66.966 66.7183 69.6877 68.5613C72.4212 70.4126 81.6725 77.0935 81.7657 77.1607L81.4527 77.5938Z" fill="#040606" fill-opacity="0.4"/>
<mask id="mask1_834_727" style="mask-type:luminance" maskUnits="userSpaceOnUse" x="43" y="27" width="49" height="59">
<path d="M44.4152 75.0175L49.9386 68.2482L63.9255 36.4533L64.549 27.0126L81.1191 30.4388L89.2265 40.9955L91.3642 58.0953L89.1369 68.0703L81.7657 74.4825L73.3689 68.4268L67.0839 72.2412L71.0668 74.9498L72.3888 81.3738L55.1058 85.4375L43.3462 78.8255L44.4152 75.0175Z" fill="white"/>
</mask>
<g mask="url(#mask1_834_727)">
<path d="M61.6982 74.4125C50.3846 74.4125 41.2131 65.244 41.2131 53.9334C41.2131 42.6229 50.3846 33.4544 61.6982 33.4544C73.0118 33.4544 82.1835 42.6229 82.1835 53.9334C82.1835 65.244 73.0118 74.4125 61.6982 74.4125ZM61.6982 29.0407C47.9463 29.0407 36.7982 40.1854 36.7982 53.9334C36.7982 67.6815 47.9463 78.8262 61.6982 78.8262C75.45 78.8262 86.5979 67.6815 86.5979 53.9334C86.5979 40.1854 75.45 29.0407 61.6982 29.0407Z" fill="#F2F2F2"/>
<path d="M69.6353 28.1812L68.5662 30.4939L73.3407 32.6992L74.4882 30.2152C72.954 29.3867 71.3303 28.7027 69.6353 28.1812Z" fill="#F2F2F2"/>
<path d="M78.9367 33.2175L77.0602 34.9409L80.6182 38.8125L82.6333 36.9618C81.5359 35.6067 80.3005 34.3511 78.9367 33.2175Z" fill="#F2F2F2"/>
<path d="M85.5837 41.4446L83.1879 42.3137L84.9813 47.2559L87.5539 46.3226C87.063 44.6498 86.4064 43.0154 85.5837 41.4446Z" fill="#F2F2F2"/>
<path d="M88.5517 51.5949L86.0062 51.4753L85.7593 56.727L88.4928 56.8555C88.6831 55.1226 88.7061 53.3612 88.5517 51.5949Z" fill="#F2F2F2"/>
<path d="M87.3842 62.1049L85.0809 61.0149L82.8313 65.7674L85.3049 66.9375C86.1477 65.4115 86.8473 63.7947 87.3842 62.1049Z" fill="#F2F2F2"/>
<path d="M82.2608 71.3569L80.554 69.465L76.6488 72.9854L78.4812 75.0176C79.8467 73.9329 81.1145 72.7097 82.2608 71.3569Z" fill="#F2F2F2"/>
<path d="M73.9706 77.9267L73.1237 75.5239L68.1636 77.2715L69.073 79.8516C70.7503 79.3761 72.3917 78.7344 73.9706 77.9267Z" fill="#F2F2F2"/>
<path d="M63.7899 80.7994L63.9331 78.2558L58.6825 77.9606L58.5287 80.6921C60.2601 80.8984 62.0218 80.9378 63.7899 80.7994Z" fill="#F2F2F2"/>
<path d="M53.2875 79.5352L54.3987 77.2426L49.6661 74.95L48.4727 77.4117C49.9914 78.2684 51.6023 78.9825 53.2875 79.5352Z" fill="#F2F2F2"/>
</g>
</svg>
