<svg width="1018" height="348" viewBox="0 0 1018 348" fill="none" xmlns="http://www.w3.org/2000/svg">
<rect width="1018" height="348" fill="#9F2D2B" fill-opacity="0.6"/>
<path fill-rule="evenodd" clip-rule="evenodd" d="M949.495 348H1018V279.495L949.495 348ZM1018 263.475V196.296L866.296 348H933.475L1018 263.475ZM1018 123.298V180.276L850.276 348H793.298L1018 123.298ZM511.223 348H572.837L920.837 0H859.223L511.223 348ZM843.203 0H778.446L430.446 348H495.203L843.203 0ZM178.059 348H114.75L462.75 0H526.059L178.059 348ZM389.75 0H446.73L98.73 348H41.7502L389.75 0ZM661.857 348H715.396L1018 45.3955V0H1009.86L661.857 348ZM993.837 0H936.857L588.857 348H645.837L993.837 0ZM337.288 348H283.749L631.749 0H685.288L337.288 348ZM542.078 0H615.729L267.729 348H194.078L542.078 0ZM0 258.31V311.848L311.848 0H258.31L0 258.31ZM242.29 0H185.311L0 185.311V242.29L242.29 0ZM1018 61.4154V107.278L777.278 348H731.415L1018 61.4154ZM762.426 0H701.307L353.307 348H414.426L762.426 0ZM327.868 0H373.73L25.7303 348H0V327.868L327.868 0ZM169.291 0H123.428L0 123.428V169.291L169.291 0ZM61.428 0H107.408L0 107.408V61.428L61.428 0ZM45.4081 0H0V45.4081L45.4081 0Z" fill="#9F2D2B"/>
</svg>
