<svg width="593" height="97" viewBox="0 0 593 97" fill="none" xmlns="http://www.w3.org/2000/svg">
<mask id="mask0_891_8724" style="mask-type:luminance" maskUnits="userSpaceOnUse" x="0" y="0" width="96" height="97">
<path d="M2.33355 2.80723C2.33355 2.58216 2.52079 2.54504 3.15737 2.61986C3.79395 2.69469 4.92454 2.28285 5.22052 2.02065C5.5165 1.75905 5.89099 1.38431 6.15314 1.42202C6.41523 1.45914 6.82715 1.45384 7.23906 1.41907C7.65097 1.38431 7.9506 1.085 8.6246 0.935345C9.29867 0.785688 9.22376 0.785695 9.59824 0.747987C9.97273 0.710867 9.44843 1.02314 10.4595 0.585957C11.4706 0.148772 11.2459 0.22419 11.8825 0.111653C12.5191 -0.000884132 12.5191 -0.000893336 12.5191 -0.000893336L34.388 0.373846C34.388 0.373846 34.8374 0.461636 35.2119 0.585957C35.5864 0.710867 35.3617 0.686121 35.8485 0.585957C36.3353 0.485793 36.6723 0.585957 36.6723 0.585957C36.6723 0.585957 36.8595 0.822812 36.8595 0.972469C36.8595 1.12212 36.897 1.34719 37.0469 1.57168C37.1966 1.79616 37.1217 1.87099 37.3091 2.05835C37.496 2.24572 37.7211 2.4325 37.8331 2.47021C37.9456 2.50732 38.2828 2.1709 37.9456 2.50733C37.6085 2.84435 37.6834 3.40586 37.7211 3.66805C37.7582 3.93024 37.6085 4.04219 37.6085 4.41692C37.6085 4.79106 37.6834 4.97842 37.8331 5.27773C37.9828 5.57705 38.0128 5.91407 38.0912 6.21397C38.1702 6.51328 38.4325 6.8503 38.4325 7.07479C38.4325 7.29927 38.4325 7.48664 38.4325 7.48664C38.4325 7.48664 38.657 7.86078 38.6947 8.04814C38.7319 8.23551 38.9564 8.53483 38.9564 8.53483C38.9564 8.53483 39.1438 8.1601 39.2564 8.53483C39.3684 8.90897 39.2935 9.17116 39.2564 9.39564C39.2187 9.62013 39.5929 9.39564 39.7055 9.65783C39.8181 9.92003 39.5181 10.1816 39.5181 10.5187C39.5181 10.8557 39.7185 11.3424 39.7308 11.4549C39.7432 11.5668 40.0426 12.1283 40.0426 12.1283C40.0426 12.1283 40.2672 12.2285 40.3668 12.3281C40.467 12.4282 40.3668 12.4159 40.5171 12.6026C40.6668 12.79 40.8412 12.8148 40.8913 12.8525C40.9414 12.8896 41.0911 12.7776 41.0534 13.1641C41.0163 13.5513 41.1783 13.8005 41.4282 14.1128C41.6775 14.4244 41.865 14.5741 42.0147 14.7615C42.1644 14.9488 42.2392 15.1609 42.327 15.3106C42.4142 15.4603 42.4142 15.5351 42.5262 15.5975C42.6388 15.66 42.7514 15.7472 42.7514 15.7472C42.7514 15.7472 43.026 16.0595 43.1504 16.3841C43.2753 16.7082 43.5376 17.2326 43.6248 17.407C43.712 17.582 43.9372 18.0186 44.2867 18.0433C44.6362 18.0686 44.8855 17.9437 45.2974 17.9314C45.7094 17.919 46.808 18.0127 46.9954 18.0468C47.1822 18.081 47.5441 18.1435 47.6691 18.1435C47.794 18.1435 47.8812 18.193 47.9437 18.0557C48.0062 17.919 47.8812 17.4571 47.9938 17.3198C48.1058 17.1825 48.4683 17.0823 48.5802 17.0953C48.6928 17.1077 48.7553 16.7583 49.1419 16.7583C49.5291 16.7583 49.3417 16.9079 49.9782 16.958C50.6153 17.0075 51.0267 16.8832 51.2265 16.8331C51.4263 16.783 51.8135 16.8083 51.876 16.783C51.9379 16.7583 52.1377 16.6334 52.1129 16.3965C52.0882 16.159 51.5265 15.8597 51.9756 15.6977C52.4247 15.5351 53.5857 15.4231 53.7855 15.6229C53.9853 15.822 54.1975 16.5461 54.4097 16.6581C54.6219 16.7706 58.7657 16.7583 58.8158 16.7329C58.8659 16.7082 58.9909 16.0966 59.0156 15.9723C59.0404 15.8474 58.9779 15.5852 59.1028 15.4479C59.2278 15.3106 59.3899 15.1857 59.2525 14.9235C59.1152 14.6619 58.9531 14.537 58.9909 14.3496C59.028 14.1628 58.9408 13.9755 59.0905 13.913C59.2402 13.8506 59.8519 13.6885 60.0016 13.4888C60.1513 13.2891 60.3635 12.5031 60.3635 12.3782C60.3635 12.2533 60.2391 11.9286 60.2391 11.6293C60.2391 11.33 60.1513 11.2298 60.1513 10.881C60.1513 10.531 60.139 10.2317 60.189 10.0944C60.2391 9.95714 60.139 9.75741 60.3635 9.53292C60.5886 9.30844 60.3888 9.20828 60.9252 9.15878C61.4621 9.1087 65.8558 9.18 66.0433 9.07571C66.2301 8.97142 66.2301 8.45999 66.5177 8.47237C66.8047 8.48474 67.641 8.60965 67.9404 8.62203C68.2398 8.6344 68.6394 8.72219 68.6271 8.97142C68.6147 9.22124 68.04 11.1679 68.2522 11.4048C68.4644 11.6417 77.5018 11.3176 77.5018 11.3176C77.5018 11.3176 77.9261 11.7919 78.0134 12.5903C78.1012 13.3886 77.6892 14.5494 77.589 14.7491C77.4894 14.9488 77.1771 15.822 77.2649 16.1219C77.3521 16.4212 77.6391 17.6067 77.9261 18.0433C78.2132 18.4805 78.4878 19.3413 78.5379 19.541C78.588 19.7408 78.9122 20.1526 78.8126 21.1631C78.7124 22.1736 78.3134 23.3968 78.1637 24.2576C78.0134 25.119 78.0263 25.7924 78.0263 26.3916C78.0263 26.9909 77.7764 27.4522 77.7641 27.8393C77.7517 28.2258 77.876 28.3384 77.9385 28.7125C78.001 29.0872 78.1507 29.1868 78.2255 29.5486C78.301 29.9103 78.3505 30.2226 78.4878 30.4224C78.6251 30.6221 78.8998 31.1459 79.1243 31.358C79.3495 31.5701 79.5487 31.6826 79.861 31.8076C80.1728 31.9319 80.56 32.3066 80.6349 32.9306C80.7097 33.5545 80.6101 33.779 80.8471 34.2533C81.0846 34.7276 81.671 35.7758 81.6333 36.4121C81.5961 37.0485 81.5337 37.6471 81.5337 37.9222C81.5337 38.1962 81.7865 38.7454 81.635 38.8579C81.4836 38.9698 80.7722 39.0323 80.6596 39.4571C80.5477 39.8813 80.4852 40.368 80.5353 40.7174C80.5848 41.0668 80.7722 41.2412 80.8471 41.6153C80.9219 41.9901 81.0592 42.3518 81.1093 42.5516C81.1594 42.7513 81.5337 42.726 81.5838 42.6765C81.6333 42.6264 82.1826 42.4143 82.2828 42.3518C82.3824 42.2894 82.6069 41.9777 82.7566 41.7903C82.9069 41.603 82.944 41.2913 83.0566 41.2288C83.1686 41.1664 83.2434 40.979 83.5057 41.0043C83.768 41.0291 84.2548 41.2288 84.7169 41.316C85.1783 41.4032 85.5656 41.2659 85.628 41.2288C85.6905 41.1911 86.3765 41.2659 86.614 41.2659C86.851 41.2659 87.7126 41.1416 87.9248 41.0167C88.137 40.8918 87.8871 40.979 88.3739 40.7545C88.8607 40.53 89.6222 40.2802 90.1715 40.2802C90.7208 40.2802 91.6196 40.193 91.8317 40.2307C92.0439 40.2679 92.0563 40.2307 92.2561 40.2926C92.4559 40.3551 92.5054 40.4051 92.7305 40.368C92.9551 40.3303 93.0052 40.1429 93.2922 40.2802C93.5792 40.4175 93.6541 40.4428 93.766 40.4299C93.8786 40.4175 94.1285 40.368 94.3277 40.2178C94.5275 40.0681 94.2405 39.9308 94.8894 39.8684C95.5389 39.8059 95.5512 39.9061 95.5512 40.3551C95.5512 40.8046 95.6137 41.3962 95.6508 41.4875C95.6886 41.5782 95.6013 41.8528 95.6508 42.1521C95.7009 42.452 95.7634 42.8008 95.7758 43.1505C95.7882 43.4999 95.9007 43.4001 95.7758 43.7245C95.6508 44.049 95.5135 44.2611 95.4888 44.3609C95.464 44.4608 94.8894 45.1096 94.9395 45.5713C94.9896 46.0331 95.3143 46.7568 95.3143 46.7568C95.3143 46.7568 95.1894 47.0813 95.2141 47.3808C95.2395 47.6803 95.2395 48.7409 95.2642 49.29C95.289 49.8391 95.6261 50.6128 95.7133 50.8124C95.8011 51.0121 95.9385 51.2491 95.7758 51.4238C95.6137 51.5985 95.3514 51.8356 95.1393 52.3347C94.9271 52.8339 94.8022 53.1459 94.7898 53.2956C94.7774 53.4453 94.6778 53.6574 94.6778 53.8948C94.6778 54.1317 94.6902 54.5188 94.7273 54.7179C94.765 54.9177 94.765 55.1298 94.8022 55.2046C94.8399 55.28 95.1894 55.729 95.2265 55.8038C95.2642 55.8787 95.3143 56.0784 95.3143 56.1656C95.3143 56.2534 79.686 56.3029 79.686 56.3029C79.686 56.3029 79.4491 56.228 79.4367 56.515C79.4243 56.8019 79.287 82.0591 79.287 82.2211C79.287 82.3831 79.4367 82.5204 79.7113 82.8951C79.986 83.2693 80.398 84.1054 80.5477 84.3051C80.6974 84.5048 81.0969 84.7417 81.4087 85.041C81.7211 85.3409 81.9456 85.6278 82.0081 85.8647C82.0706 86.1022 82.1702 86.2141 82.8692 87.1003C83.5682 87.9864 84.3797 88.7353 84.6167 88.9721C84.8542 89.209 89.5473 92.8532 89.5473 92.8532L89.7347 93.04C89.7347 93.04 75.1178 96.1474 74.9056 96.1975C74.6934 96.247 72.7084 95.7856 72.4468 95.7355C72.1845 95.6855 71.7602 95.623 71.0735 95.6855C70.3869 95.7479 69.8129 95.7479 69.5258 95.8227C69.2388 95.8976 69.039 95.9477 68.6772 95.96C68.3147 95.9724 68.1903 95.8976 67.6157 95.7232C67.0417 95.5482 66.5301 95.3985 65.9808 95.1864C65.4315 94.9743 65.1568 94.8871 64.5704 94.8995C63.9834 94.9118 60.2763 94.7374 59.7771 94.675C59.2779 94.6125 56.7937 94.5624 56.3446 94.4252C55.8949 94.2879 54.5718 93.8136 54.5346 93.7641C54.4969 93.714 51.6261 90.6814 51.4015 90.4569C51.177 90.2324 39.069 90.4074 39.069 90.4074C39.069 90.4074 20.1707 90.4569 19.8587 90.4569C19.5466 90.4569 19.5091 90.2825 19.2471 90.5194C18.9849 90.7562 18.5231 91.006 18.3483 91.0184C18.1736 91.0308 17.9364 90.9813 17.7866 90.9436C17.6368 90.9065 17.1376 90.8688 17.0003 90.7939C16.8629 90.7191 16.4884 90.507 16.4135 90.3573C16.3387 90.2077 16.1265 89.9702 16.1265 89.9702C16.1265 89.9702 16.114 89.9702 15.8519 89.9078C15.5897 89.8453 15.6271 89.9702 15.0156 89.6462C14.4039 89.3215 13.9296 88.4106 13.6176 88.0984C13.3055 87.7867 13.0808 87.5746 12.8062 87.5622C12.5315 87.5498 12.3693 87.462 12.2944 87.5498C12.2195 87.637 11.7826 87.6494 11.7077 87.6246C11.6329 87.5993 11.2459 87.4249 11.0337 87.3996C10.8215 87.3748 10.472 87.2752 10.0351 87.4496C9.59824 87.6246 8.22519 88.1985 7.83821 88.423C7.45129 88.6475 7.03938 88.8349 6.81471 88.9598C6.58998 89.0841 6.44022 89.1842 6.25298 89.1595C6.06574 89.1342 5.82857 88.9845 5.6164 89.0717C5.40423 89.1595 4.92984 89.3716 4.79252 89.3339C4.65526 89.2968 4.41809 89.1966 4.3182 89.1465C4.21841 89.097 3.40703 88.5355 3.05753 88.5727C2.70804 88.6104 2.1713 88.9598 1.84673 89.0346C1.52217 89.1094 1.11031 89.2968 0.910577 89.3339C0.710839 89.3716 0.336413 89.1842 0.336413 89.1842C0.336413 89.1842 0.423757 88.76 0.411263 88.6351C0.398768 88.5102 0.411263 87.0755 0.411263 87.0378C0.411263 87.0007 0.511102 86.8257 0.648425 86.6259C0.785748 86.4262 0.685851 86.4515 0.685851 86.0521C0.685851 85.6526 0.498607 81.1352 0.486171 80.9732C0.473677 80.8112 0.561021 80.711 0.461182 80.5867C0.361343 80.4618 -0.137971 79.9003 0.0367767 79.4259C0.211584 78.9516 0.66092 78.6771 0.873094 78.627C1.08533 78.5775 1.32249 78.3029 1.37241 78.2028C1.42233 78.1032 1.45975 77.7915 1.52217 77.7291C1.58464 77.6666 1.69691 77.4292 1.7344 77.3296C1.77182 77.2294 1.84673 77.0426 1.85923 76.893C1.87172 76.7427 1.80931 76.6432 1.85923 76.4688C1.90915 76.2938 1.99655 75.9821 1.99655 75.8442C1.99655 75.7075 1.98406 75.433 1.99655 75.3328C2.00899 75.2332 1.95907 75.1331 2.03398 74.9586C2.10888 74.7837 1.88422 74.3223 2.04641 74.2722C2.20872 74.2222 2.53323 74.0224 2.67055 73.8981C2.80788 73.7732 3.00761 73.686 2.9327 73.5487C2.8578 73.4114 2.45838 73.4739 2.4209 73.349C2.38347 73.224 2.39596 72.7497 2.45838 72.6125C2.52079 72.4752 2.54573 71.9514 2.64556 71.8512C2.74546 71.7516 2.77045 71.7888 2.75796 71.6267C2.74546 71.4647 2.62063 71.5896 2.70804 71.1901C2.79538 70.7907 3.11995 69.3807 3.20729 69.1061C3.2947 68.8316 3.30719 68.22 3.33212 67.9955C3.35711 67.771 3.23228 67.7333 3.40703 67.4965C3.58178 67.259 3.54429 67.097 3.55679 66.8849C3.56928 66.6728 3.5443 66.3234 3.6192 66.1985C3.69411 66.0735 3.78146 65.9115 3.76902 65.8491C3.75653 65.7866 3.6317 65.8868 3.64419 65.6617C3.65669 65.4372 3.90635 64.7761 4.08103 64.5016C4.25578 64.227 4.54286 63.8275 4.59284 63.8028C4.64276 63.7774 4.70518 63.8028 4.7551 63.6902C4.80502 63.5783 4.80502 63.5282 4.80502 63.2908C4.80502 63.0539 4.70518 62.305 4.78009 62.0057C4.85494 61.7064 4.99226 60.7955 4.99226 60.683C4.99226 60.5704 4.78008 60.3212 4.87992 60.1592C4.97976 59.9966 5.79115 59.3602 5.9659 59.1605C6.14065 58.9607 6.3154 58.3244 6.47765 58.2873C6.6399 58.2496 6.66489 58.312 6.75229 58.2496C6.83964 58.1871 6.86463 58.1123 6.97696 58.1123C7.0893 58.1123 7.26404 58.1123 7.32646 58.0251C7.38887 57.9379 7.35145 57.975 7.41386 57.7629C7.47622 57.5508 7.65097 56.7524 7.80078 56.5651C7.9506 56.3777 8.11285 56.1909 8.07537 56.0407C8.03795 55.891 7.71338 55.9287 7.71338 55.8038C7.71338 55.6789 8.12535 55.28 8.2876 55.1174C8.44986 54.9554 8.67452 54.7928 8.84927 54.7309C9.02408 54.6684 9.17384 54.6684 9.34859 54.5188C9.52333 54.3685 9.94774 53.8948 10.1225 53.7575C10.2972 53.6203 10.5718 53.3581 10.7341 53.308C10.8964 53.2585 11.4955 53.2956 11.6329 53.1831C11.7701 53.0711 11.9949 52.8089 12.0572 52.6343C12.1196 52.4595 12.3069 51.7483 12.4317 51.5486C12.5565 51.349 12.6564 51.2491 12.8187 51.1618C12.9809 51.0744 13.268 51.0495 13.4178 50.9247C13.5676 50.7999 13.992 50.5379 14.0918 50.3258C14.1917 50.1136 14.1293 49.7393 14.2666 49.5271C14.4039 49.3149 14.5287 49.2151 14.5537 49.1278C14.5787 49.0404 14.6411 48.7659 14.6661 48.6036C14.691 48.4414 14.5787 48.3416 14.6161 48.1919C14.6536 48.0421 15.0156 46.5322 15.028 46.1079C15.0405 45.6836 14.9406 45.1471 15.053 44.9349C15.1653 44.7228 15.2277 44.4358 15.2277 44.2986C15.2277 44.1613 15.2277 43.8867 15.2028 43.7744C15.1778 43.6621 15.1154 43.5623 15.1154 43.4625C15.1154 43.3626 15.1404 43.2878 15.2153 43.163C15.2901 43.0382 15.3276 41.8151 15.3276 41.7656C15.3276 41.7155 15.2153 41.6336 15.2527 41.4875C15.2901 41.3408 15.3401 41.2913 15.3651 41.1039C15.39 40.9166 15.3276 40.4299 15.2277 40.2431C15.1279 40.0557 14.716 39.3446 14.5412 39.1201C14.3665 38.895 14.3165 38.4961 14.329 38.2711C14.3415 38.0466 14.5787 38.0843 14.3789 37.7844C14.1792 37.4851 13.0309 36.1747 13.0309 36.1747L12.569 35.6132C12.569 35.6132 12.544 35.0022 12.4442 34.902C12.3444 34.8024 11.9075 34.74 11.7701 34.3158C11.6329 33.8915 11.7202 33.5916 11.4206 33.2175C11.1211 32.8434 10.8215 32.4686 10.8215 32.4686C10.8215 32.4686 10.834 31.6326 10.7466 31.4705C10.6592 31.3085 10.0975 30.5596 10.0975 30.3222C10.0975 30.0853 10.3597 29.6487 10.3097 29.4113C10.2598 29.1744 9.54832 26.8536 9.44842 26.6161C9.34859 26.3793 8.99909 25.7176 8.93668 25.5432C8.87426 25.3682 8.71201 25.3935 8.73694 25.119C8.76193 24.8444 9.49835 23.3467 9.7605 23.1599C10.0226 22.9725 10.2349 22.8229 10.2473 22.9348C10.2598 23.0474 9.99766 23.4215 9.8604 23.5717C9.72307 23.7214 9.13641 24.3825 9.08649 24.6323C9.03652 24.8815 9.01159 25.0188 9.29867 24.6948C9.58575 24.3701 9.89782 23.8834 10.11 23.709C10.3222 23.534 10.5344 23.0474 10.6967 22.9973C10.859 22.9478 11.6079 22.7975 11.7202 22.4611C11.8325 22.1241 11.5954 21.8118 11.533 21.575C11.4706 21.3381 11.2459 21.0258 11.3083 20.7265C11.3707 20.4266 11.483 20.2893 11.508 20.0525C11.533 19.8156 10.6467 19.204 10.5469 18.9171C10.4471 18.6301 10.3596 18.0309 10.2723 17.8064C10.1849 17.582 9.78549 17.2196 9.64816 16.9327C9.51084 16.6457 7.88819 12.8525 7.88819 12.7152C7.88819 12.5779 8.07537 12.5526 8.06288 12.4777C8.05044 12.4029 7.88819 12.3157 7.81328 12.1661C7.73837 12.0164 7.58861 10.4191 7.53863 10.0821C7.48871 9.74504 5.9534 7.87315 5.84107 7.71112C5.72874 7.54909 5.39173 7.33698 5.07966 7.12487C4.76759 6.91276 4.63027 6.87505 4.56785 6.65057C4.50544 6.42608 3.78146 5.25299 3.69411 5.14046C3.60671 5.02792 2.87029 4.65377 2.92021 4.32913C2.97013 4.00507 3.08246 3.96736 2.97013 3.78058C2.8578 3.59322 2.33355 2.80723 2.33355 2.80723Z" fill="white"/>
</mask>
<g mask="url(#mask0_891_8724)">
<path d="M99.2084 49H-5.12402V-0.205572H99.2084V49Z" fill="#ECC8CC" fill-opacity="0.4"/>
<path d="M99.2084 97.6152H-5.12402V49.0004H99.2084V97.6152Z" fill="#9B9B9B" fill-opacity="0.4"/>
</g>
<path d="M61.3703 70.7703L58.9315 73.5754C58.9315 73.5754 58.3297 73.9431 59.6664 74.2436C61.0025 74.5441 61.7374 74.8446 62.6392 75.4791C63.5415 76.1137 65.1452 78.4516 65.7799 79.3537C66.4147 80.2552 67.4502 81.6581 68.7533 80.7896C70.0558 79.9211 68.8535 78.0174 68.7533 77.7169C68.6531 77.4164 66.9492 75.3124 65.6126 74.1098C64.2765 72.9079 61.3703 70.7703 61.3703 70.7703Z" fill="#F2F2F2"/>
<path d="M62.6061 72.7948C62.6061 72.9792 62.4564 73.1289 62.2719 73.1289C62.0874 73.1289 61.9377 72.9792 61.9377 72.7948C61.9377 72.6104 62.0874 72.4608 62.2719 72.4608C62.4564 72.4608 62.6061 72.6104 62.6061 72.7948Z" fill="#040606" fill-opacity="0.4"/>
<path d="M65.1452 74.9667C65.1452 75.1511 64.9955 75.3008 64.811 75.3008C64.6265 75.3008 64.4768 75.1511 64.4768 74.9667C64.4768 74.7823 64.6265 74.6326 64.811 74.6326C64.9955 74.6326 65.1452 74.7823 65.1452 74.9667Z" fill="#040606" fill-opacity="0.4"/>
<path d="M67.4165 77.2368C67.4165 77.4212 67.2674 77.5703 67.0824 77.5703C66.8979 77.5703 66.7488 77.4212 66.7488 77.2368C66.7488 77.0524 66.8979 76.9028 67.0824 76.9028C67.2674 76.9028 67.4165 77.0524 67.4165 77.2368Z" fill="#040606" fill-opacity="0.4"/>
<path d="M42.5238 39.3142L47.5541 35.6606H41.3363L39.4143 29.748L37.493 35.6606H31.2747L36.3054 39.3142L34.3838 45.2266L39.4143 41.5726L44.4452 45.2266L42.5238 39.3142Z" fill="#F2F2F2"/>
<path d="M30.9352 44.4508C30.9352 44.4508 30.668 46.4101 33.697 49.2601C36.7259 52.1101 45.3675 59.324 45.3675 59.324L60.7795 70.5459L58.4633 73.1289L38.0623 60.6597C38.0623 60.6597 31.3807 56.7415 30.4898 54.6929C29.5989 52.6445 28.619 50.596 30.9352 44.4508Z" fill="#F2F2F2"/>
<path d="M59.5096 71.5195C59.4165 71.4524 50.1716 64.7767 47.4452 62.9302C44.7064 61.0754 36.553 54.6113 36.4709 54.5465L36.8032 54.1276C36.885 54.1924 45.0229 60.6441 47.7446 62.4871C50.4781 64.3384 59.7294 71.0193 59.8226 71.0865L59.5096 71.5195Z" fill="#040606" fill-opacity="0.4"/>
<mask id="mask1_891_8724" style="mask-type:luminance" maskUnits="userSpaceOnUse" x="21" y="20" width="49" height="60">
<path d="M22.4721 68.9433L27.9955 62.174L41.9823 30.3791L42.6059 20.9384L59.176 24.3646L67.2834 34.9212L69.421 52.0211L67.1938 61.9961L59.8226 68.4083L51.4258 62.3525L45.1408 66.167L49.1237 68.8756L50.4457 75.2996L33.1627 79.3633L21.4031 72.7513L22.4721 68.9433Z" fill="white"/>
</mask>
<g mask="url(#mask1_891_8724)">
<path d="M39.7552 68.3383C28.4416 68.3383 19.2701 59.1698 19.2701 47.8592C19.2701 36.5487 28.4416 27.3802 39.7552 27.3802C51.0688 27.3802 60.2405 36.5487 60.2405 47.8592C60.2405 59.1698 51.0688 68.3383 39.7552 68.3383ZM39.7552 22.9665C26.0033 22.9665 14.8552 34.1112 14.8552 47.8592C14.8552 61.6073 26.0033 72.752 39.7552 72.752C53.507 72.752 64.6549 61.6073 64.6549 47.8592C64.6549 34.1112 53.507 22.9665 39.7552 22.9665Z" fill="#F2F2F2"/>
<path d="M47.6922 22.107L46.623 24.4196L51.3975 26.625L52.545 24.1409C51.0109 23.3125 49.3872 22.6285 47.6922 22.107Z" fill="#F2F2F2"/>
<path d="M56.9937 27.1433L55.1172 28.8667L58.6752 32.7383L60.6903 30.8876C59.5929 29.5325 58.3575 28.2769 56.9937 27.1433Z" fill="#F2F2F2"/>
<path d="M63.6407 35.3704L61.2449 36.2394L63.0383 41.1816L65.6109 40.2483C65.12 38.5756 64.4634 36.9412 63.6407 35.3704Z" fill="#F2F2F2"/>
<path d="M66.6086 45.5207L64.0631 45.401L63.8162 50.6527L66.5497 50.7812C66.74 49.0484 66.763 47.287 66.6086 45.5207Z" fill="#F2F2F2"/>
<path d="M65.4411 56.0307L63.1378 54.9407L60.8882 59.6931L63.3618 60.8633C64.2046 59.3373 64.9042 57.7205 65.4411 56.0307Z" fill="#F2F2F2"/>
<path d="M60.3178 65.2827L58.611 63.3908L54.7058 66.9112L56.5382 68.9434C57.9037 67.8586 59.1715 66.6355 60.3178 65.2827Z" fill="#F2F2F2"/>
<path d="M52.0278 71.8524L51.1808 69.4497L46.2207 71.1972L47.1301 73.7773C48.8074 73.3019 50.4488 72.6602 52.0278 71.8524Z" fill="#F2F2F2"/>
<path d="M41.8469 74.7252L41.9901 72.1816L36.7395 71.8864L36.5857 74.6179C38.3171 74.8241 40.0788 74.8636 41.8469 74.7252Z" fill="#F2F2F2"/>
<path d="M31.3443 73.4609L32.4556 71.1684L27.723 68.8758L26.5295 71.3375C28.0483 72.1942 29.6592 72.9083 31.3443 73.4609Z" fill="#F2F2F2"/>
</g>
<mask id="mask2_891_8724" style="mask-type:luminance" maskUnits="userSpaceOnUse" x="177" y="0" width="96" height="97">
<path d="M179.334 2.80723C179.334 2.58216 179.521 2.54504 180.157 2.61986C180.794 2.69469 181.925 2.28285 182.221 2.02065C182.517 1.75905 182.891 1.38431 183.153 1.42202C183.415 1.45914 183.827 1.45384 184.239 1.41907C184.651 1.38431 184.951 1.085 185.625 0.935345C186.299 0.785688 186.224 0.785695 186.598 0.747987C186.973 0.710867 186.448 1.02314 187.459 0.585957C188.471 0.148772 188.246 0.22419 188.883 0.111653C189.519 -0.000884132 189.519 -0.000893336 189.519 -0.000893336L211.388 0.373846C211.388 0.373846 211.837 0.461636 212.212 0.585957C212.586 0.710867 212.362 0.686121 212.848 0.585957C213.335 0.485793 213.672 0.585957 213.672 0.585957C213.672 0.585957 213.86 0.822812 213.86 0.972469C213.86 1.12212 213.897 1.34719 214.047 1.57168C214.197 1.79616 214.122 1.87099 214.309 2.05835C214.496 2.24572 214.721 2.4325 214.833 2.47021C214.946 2.50732 215.283 2.1709 214.946 2.50733C214.609 2.84435 214.683 3.40586 214.721 3.66805C214.758 3.93024 214.609 4.04219 214.609 4.41692C214.609 4.79106 214.683 4.97842 214.833 5.27773C214.983 5.57705 215.013 5.91407 215.091 6.21397C215.17 6.51328 215.432 6.8503 215.432 7.07479C215.432 7.29927 215.432 7.48664 215.432 7.48664C215.432 7.48664 215.657 7.86078 215.695 8.04814C215.732 8.23551 215.956 8.53483 215.956 8.53483C215.956 8.53483 216.144 8.1601 216.256 8.53483C216.368 8.90897 216.294 9.17116 216.256 9.39564C216.219 9.62013 216.593 9.39564 216.705 9.65783C216.818 9.92003 216.518 10.1816 216.518 10.5187C216.518 10.8557 216.718 11.3424 216.731 11.4549C216.743 11.5668 217.043 12.1283 217.043 12.1283C217.043 12.1283 217.267 12.2285 217.367 12.3281C217.467 12.4282 217.367 12.4159 217.517 12.6026C217.667 12.79 217.841 12.8148 217.891 12.8525C217.941 12.8896 218.091 12.7776 218.053 13.1641C218.016 13.5513 218.178 13.8005 218.428 14.1128C218.678 14.4244 218.865 14.5741 219.015 14.7615C219.164 14.9488 219.239 15.1609 219.327 15.3106C219.414 15.4603 219.414 15.5351 219.526 15.5975C219.639 15.66 219.751 15.7472 219.751 15.7472C219.751 15.7472 220.026 16.0595 220.15 16.3841C220.275 16.7082 220.538 17.2326 220.625 17.407C220.712 17.582 220.937 18.0186 221.287 18.0433C221.636 18.0686 221.885 17.9437 222.297 17.9314C222.709 17.919 223.808 18.0127 223.995 18.0468C224.182 18.081 224.544 18.1435 224.669 18.1435C224.794 18.1435 224.881 18.193 224.944 18.0557C225.006 17.919 224.881 17.4571 224.994 17.3198C225.106 17.1825 225.468 17.0823 225.58 17.0953C225.693 17.1077 225.755 16.7583 226.142 16.7583C226.529 16.7583 226.342 16.9079 226.978 16.958C227.615 17.0075 228.027 16.8832 228.227 16.8331C228.426 16.783 228.814 16.8083 228.876 16.783C228.938 16.7583 229.138 16.6334 229.113 16.3965C229.088 16.159 228.526 15.8597 228.976 15.6977C229.425 15.5351 230.586 15.4231 230.786 15.6229C230.985 15.822 231.198 16.5461 231.41 16.6581C231.622 16.7706 235.766 16.7583 235.816 16.7329C235.866 16.7082 235.991 16.0966 236.016 15.9723C236.04 15.8474 235.978 15.5852 236.103 15.4479C236.228 15.3106 236.39 15.1857 236.253 14.9235C236.115 14.6619 235.953 14.537 235.991 14.3496C236.028 14.1628 235.941 13.9755 236.09 13.913C236.24 13.8506 236.852 13.6885 237.002 13.4888C237.151 13.2891 237.364 12.5031 237.364 12.3782C237.364 12.2533 237.239 11.9286 237.239 11.6293C237.239 11.33 237.151 11.2298 237.151 10.881C237.151 10.531 237.139 10.2317 237.189 10.0944C237.239 9.95714 237.139 9.75741 237.364 9.53292C237.589 9.30844 237.389 9.20828 237.925 9.15878C238.462 9.1087 242.856 9.18 243.043 9.07571C243.23 8.97142 243.23 8.45999 243.518 8.47237C243.805 8.48474 244.641 8.60965 244.94 8.62203C245.24 8.6344 245.639 8.72219 245.627 8.97142C245.615 9.22124 245.04 11.1679 245.252 11.4048C245.464 11.6417 254.502 11.3176 254.502 11.3176C254.502 11.3176 254.926 11.7919 255.013 12.5903C255.101 13.3886 254.689 14.5494 254.589 14.7491C254.489 14.9488 254.177 15.822 254.265 16.1219C254.352 16.4212 254.639 17.6067 254.926 18.0433C255.213 18.4805 255.488 19.3413 255.538 19.541C255.588 19.7408 255.912 20.1526 255.813 21.1631C255.712 22.1736 255.313 23.3968 255.164 24.2576C255.013 25.119 255.026 25.7924 255.026 26.3916C255.026 26.9909 254.776 27.4522 254.764 27.8393C254.752 28.2258 254.876 28.3384 254.939 28.7125C255.001 29.0872 255.151 29.1868 255.226 29.5486C255.301 29.9103 255.35 30.2226 255.488 30.4224C255.625 30.6221 255.9 31.1459 256.124 31.358C256.349 31.5701 256.549 31.6826 256.861 31.8076C257.173 31.9319 257.56 32.3066 257.635 32.9306C257.71 33.5545 257.61 33.779 257.847 34.2533C258.085 34.7276 258.671 35.7758 258.633 36.4121C258.596 37.0485 258.534 37.6471 258.534 37.9222C258.534 38.1962 258.787 38.7454 258.635 38.8579C258.484 38.9698 257.772 39.0323 257.66 39.4571C257.548 39.8813 257.485 40.368 257.535 40.7174C257.585 41.0668 257.772 41.2412 257.847 41.6153C257.922 41.9901 258.059 42.3518 258.109 42.5516C258.159 42.7513 258.534 42.726 258.584 42.6765C258.633 42.6264 259.183 42.4143 259.283 42.3518C259.382 42.2894 259.607 41.9777 259.757 41.7903C259.907 41.603 259.944 41.2913 260.057 41.2288C260.169 41.1664 260.243 40.979 260.506 41.0043C260.768 41.0291 261.255 41.2288 261.717 41.316C262.178 41.4032 262.566 41.2659 262.628 41.2288C262.691 41.1911 263.377 41.2659 263.614 41.2659C263.851 41.2659 264.713 41.1416 264.925 41.0167C265.137 40.8918 264.887 40.979 265.374 40.7545C265.861 40.53 266.622 40.2802 267.171 40.2802C267.721 40.2802 268.62 40.193 268.832 40.2307C269.044 40.2679 269.056 40.2307 269.256 40.2926C269.456 40.3551 269.505 40.4051 269.731 40.368C269.955 40.3303 270.005 40.1429 270.292 40.2802C270.579 40.4175 270.654 40.4428 270.766 40.4299C270.879 40.4175 271.129 40.368 271.328 40.2178C271.528 40.0681 271.24 39.9308 271.889 39.8684C272.539 39.8059 272.551 39.9061 272.551 40.3551C272.551 40.8046 272.614 41.3962 272.651 41.4875C272.689 41.5782 272.601 41.8528 272.651 42.1521C272.701 42.452 272.763 42.8008 272.776 43.1505C272.788 43.4999 272.901 43.4001 272.776 43.7245C272.651 44.049 272.514 44.2611 272.489 44.3609C272.464 44.4608 271.889 45.1096 271.939 45.5713C271.99 46.0331 272.314 46.7568 272.314 46.7568C272.314 46.7568 272.189 47.0813 272.214 47.3808C272.239 47.6803 272.239 48.7409 272.264 49.29C272.289 49.8391 272.626 50.6128 272.713 50.8124C272.801 51.0121 272.938 51.2491 272.776 51.4238C272.614 51.5985 272.351 51.8356 272.139 52.3347C271.927 52.8339 271.802 53.1459 271.79 53.2956C271.777 53.4453 271.678 53.6574 271.678 53.8948C271.678 54.1317 271.69 54.5188 271.727 54.7179C271.765 54.9177 271.765 55.1298 271.802 55.2046C271.84 55.28 272.189 55.729 272.227 55.8038C272.264 55.8787 272.314 56.0784 272.314 56.1656C272.314 56.2534 256.686 56.3029 256.686 56.3029C256.686 56.3029 256.449 56.228 256.437 56.515C256.424 56.8019 256.287 82.0591 256.287 82.2211C256.287 82.3831 256.437 82.5204 256.711 82.8951C256.986 83.2693 257.398 84.1054 257.548 84.3051C257.697 84.5048 258.097 84.7417 258.409 85.041C258.721 85.3409 258.946 85.6278 259.008 85.8647C259.071 86.1022 259.17 86.2141 259.869 87.1003C260.568 87.9864 261.38 88.7353 261.617 88.9721C261.854 89.209 266.547 92.8532 266.547 92.8532L266.735 93.04C266.735 93.04 252.118 96.1474 251.906 96.1975C251.693 96.247 249.708 95.7856 249.447 95.7355C249.184 95.6855 248.76 95.623 248.074 95.6855C247.387 95.7479 246.813 95.7479 246.526 95.8227C246.239 95.8976 246.039 95.9477 245.677 95.96C245.315 95.9724 245.19 95.8976 244.616 95.7232C244.042 95.5482 243.53 95.3985 242.981 95.1864C242.431 94.9743 242.157 94.8871 241.57 94.8995C240.983 94.9118 237.276 94.7374 236.777 94.675C236.278 94.6125 233.794 94.5624 233.345 94.4252C232.895 94.2879 231.572 93.8136 231.535 93.7641C231.497 93.714 228.626 90.6814 228.402 90.4569C228.177 90.2324 216.069 90.4074 216.069 90.4074C216.069 90.4074 197.171 90.4569 196.859 90.4569C196.547 90.4569 196.509 90.2825 196.247 90.5194C195.985 90.7562 195.523 91.006 195.348 91.0184C195.174 91.0308 194.936 90.9813 194.787 90.9436C194.637 90.9065 194.138 90.8688 194 90.7939C193.863 90.7191 193.488 90.507 193.414 90.3573C193.339 90.2077 193.126 89.9702 193.126 89.9702C193.126 89.9702 193.114 89.9702 192.852 89.9078C192.59 89.8453 192.627 89.9702 192.016 89.6462C191.404 89.3215 190.93 88.4106 190.618 88.0984C190.305 87.7867 190.081 87.5746 189.806 87.5622C189.532 87.5498 189.369 87.462 189.294 87.5498C189.22 87.637 188.783 87.6494 188.708 87.6246C188.633 87.5993 188.246 87.4249 188.034 87.3996C187.821 87.3748 187.472 87.2752 187.035 87.4496C186.598 87.6246 185.225 88.1985 184.838 88.423C184.451 88.6475 184.039 88.8349 183.815 88.9598C183.59 89.0841 183.44 89.1842 183.253 89.1595C183.066 89.1342 182.829 88.9845 182.616 89.0717C182.404 89.1595 181.93 89.3716 181.793 89.3339C181.655 89.2968 181.418 89.1966 181.318 89.1465C181.218 89.097 180.407 88.5355 180.058 88.5727C179.708 88.6104 179.171 88.9598 178.847 89.0346C178.522 89.1094 178.11 89.2968 177.911 89.3339C177.711 89.3716 177.336 89.1842 177.336 89.1842C177.336 89.1842 177.424 88.76 177.411 88.6351C177.399 88.5102 177.411 87.0755 177.411 87.0378C177.411 87.0007 177.511 86.8257 177.648 86.6259C177.786 86.4262 177.686 86.4515 177.686 86.0521C177.686 85.6526 177.499 81.1352 177.486 80.9732C177.474 80.8112 177.561 80.711 177.461 80.5867C177.361 80.4618 176.862 79.9003 177.037 79.4259C177.212 78.9516 177.661 78.6771 177.873 78.627C178.085 78.5775 178.322 78.3029 178.372 78.2028C178.422 78.1032 178.46 77.7915 178.522 77.7291C178.585 77.6666 178.697 77.4292 178.734 77.3296C178.772 77.2294 178.847 77.0426 178.859 76.893C178.872 76.7427 178.809 76.6432 178.859 76.4688C178.909 76.2938 178.997 75.9821 178.997 75.8442C178.997 75.7075 178.984 75.433 178.997 75.3328C179.009 75.2332 178.959 75.1331 179.034 74.9586C179.109 74.7837 178.884 74.3223 179.046 74.2722C179.209 74.2222 179.533 74.0224 179.671 73.8981C179.808 73.7732 180.008 73.686 179.933 73.5487C179.858 73.4114 179.458 73.4739 179.421 73.349C179.383 73.224 179.396 72.7497 179.458 72.6125C179.521 72.4752 179.546 71.9514 179.646 71.8512C179.745 71.7516 179.77 71.7888 179.758 71.6267C179.745 71.4647 179.621 71.5896 179.708 71.1901C179.795 70.7907 180.12 69.3807 180.207 69.1061C180.295 68.8316 180.307 68.22 180.332 67.9955C180.357 67.771 180.232 67.7333 180.407 67.4965C180.582 67.259 180.544 67.097 180.557 66.8849C180.569 66.6728 180.544 66.3234 180.619 66.1985C180.694 66.0735 180.781 65.9115 180.769 65.8491C180.757 65.7866 180.632 65.8868 180.644 65.6617C180.657 65.4372 180.906 64.7761 181.081 64.5016C181.256 64.227 181.543 63.8275 181.593 63.8028C181.643 63.7774 181.705 63.8028 181.755 63.6902C181.805 63.5783 181.805 63.5282 181.805 63.2908C181.805 63.0539 181.705 62.305 181.78 62.0057C181.855 61.7064 181.992 60.7955 181.992 60.683C181.992 60.5704 181.78 60.3212 181.88 60.1592C181.98 59.9966 182.791 59.3602 182.966 59.1605C183.141 58.9607 183.315 58.3244 183.478 58.2873C183.64 58.2496 183.665 58.312 183.752 58.2496C183.84 58.1871 183.865 58.1123 183.977 58.1123C184.089 58.1123 184.264 58.1123 184.326 58.0251C184.389 57.9379 184.351 57.975 184.414 57.7629C184.476 57.5508 184.651 56.7524 184.801 56.5651C184.951 56.3777 185.113 56.1909 185.075 56.0407C185.038 55.891 184.713 55.9287 184.713 55.8038C184.713 55.6789 185.125 55.28 185.288 55.1174C185.45 54.9554 185.675 54.7928 185.849 54.7309C186.024 54.6684 186.174 54.6684 186.349 54.5188C186.523 54.3685 186.948 53.8948 187.122 53.7575C187.297 53.6203 187.572 53.3581 187.734 53.308C187.896 53.2585 188.496 53.2956 188.633 53.1831C188.77 53.0711 188.995 52.8089 189.057 52.6343C189.12 52.4595 189.307 51.7483 189.432 51.5486C189.557 51.349 189.656 51.2491 189.819 51.1618C189.981 51.0744 190.268 51.0495 190.418 50.9247C190.568 50.7999 190.992 50.5379 191.092 50.3258C191.192 50.1136 191.129 49.7393 191.267 49.5271C191.404 49.3149 191.529 49.2151 191.554 49.1278C191.579 49.0404 191.641 48.7659 191.666 48.6036C191.691 48.4414 191.579 48.3416 191.616 48.1919C191.654 48.0421 192.016 46.5322 192.028 46.1079C192.041 45.6836 191.941 45.1471 192.053 44.9349C192.165 44.7228 192.228 44.4358 192.228 44.2986C192.228 44.1613 192.228 43.8867 192.203 43.7744C192.178 43.6621 192.115 43.5623 192.115 43.4625C192.115 43.3626 192.14 43.2878 192.215 43.163C192.29 43.0382 192.328 41.8151 192.328 41.7656C192.328 41.7155 192.215 41.6336 192.253 41.4875C192.29 41.3408 192.34 41.2913 192.365 41.1039C192.39 40.9166 192.328 40.4299 192.228 40.2431C192.128 40.0557 191.716 39.3446 191.541 39.1201C191.366 38.895 191.317 38.4961 191.329 38.2711C191.341 38.0466 191.579 38.0843 191.379 37.7844C191.179 37.4851 190.031 36.1747 190.031 36.1747L189.569 35.6132C189.569 35.6132 189.544 35.0022 189.444 34.902C189.344 34.8024 188.907 34.74 188.77 34.3158C188.633 33.8915 188.72 33.5916 188.421 33.2175C188.121 32.8434 187.821 32.4686 187.821 32.4686C187.821 32.4686 187.834 31.6326 187.747 31.4705C187.659 31.3085 187.097 30.5596 187.097 30.3222C187.097 30.0853 187.36 29.6487 187.31 29.4113C187.26 29.1744 186.548 26.8536 186.448 26.6161C186.349 26.3793 185.999 25.7176 185.937 25.5432C185.874 25.3682 185.712 25.3935 185.737 25.119C185.762 24.8444 186.498 23.3467 186.76 23.1599C187.023 22.9725 187.235 22.8229 187.247 22.9348C187.26 23.0474 186.998 23.4215 186.86 23.5717C186.723 23.7214 186.136 24.3825 186.086 24.6323C186.037 24.8815 186.012 25.0188 186.299 24.6948C186.586 24.3701 186.898 23.8834 187.11 23.709C187.322 23.534 187.534 23.0474 187.697 22.9973C187.859 22.9478 188.608 22.7975 188.72 22.4611C188.833 22.1241 188.595 21.8118 188.533 21.575C188.471 21.3381 188.246 21.0258 188.308 20.7265C188.371 20.4266 188.483 20.2893 188.508 20.0525C188.533 19.8156 187.647 19.204 187.547 18.9171C187.447 18.6301 187.36 18.0309 187.272 17.8064C187.185 17.582 186.785 17.2196 186.648 16.9327C186.511 16.6457 184.888 12.8525 184.888 12.7152C184.888 12.5779 185.075 12.5526 185.063 12.4777C185.05 12.4029 184.888 12.3157 184.813 12.1661C184.738 12.0164 184.589 10.4191 184.539 10.0821C184.489 9.74504 182.953 7.87315 182.841 7.71112C182.729 7.54909 182.392 7.33698 182.08 7.12487C181.768 6.91276 181.63 6.87505 181.568 6.65057C181.505 6.42608 180.781 5.25299 180.694 5.14046C180.607 5.02792 179.87 4.65377 179.92 4.32913C179.97 4.00507 180.082 3.96736 179.97 3.78058C179.858 3.59322 179.334 2.80723 179.334 2.80723Z" fill="white"/>
</mask>
<g mask="url(#mask2_891_8724)">
<path d="M276.208 49H171.876V-0.205572H276.208V49Z" fill="#ECC8CC" fill-opacity="0.4"/>
<path d="M276.208 97.6152H171.876V49.0004H276.208V97.6152Z" fill="#9B9B9B" fill-opacity="0.4"/>
</g>
<path d="M238.37 70.7703L235.931 73.5754C235.931 73.5754 235.33 73.9431 236.666 74.2436C238.003 74.5441 238.737 74.8446 239.639 75.4791C240.542 76.1137 242.145 78.4516 242.78 79.3537C243.415 80.2552 244.45 81.6581 245.753 80.7896C247.056 79.9211 245.854 78.0174 245.753 77.7169C245.653 77.4164 243.949 75.3124 242.613 74.1098C241.276 72.9079 238.37 70.7703 238.37 70.7703Z" fill="#F2F2F2"/>
<path d="M239.606 72.7948C239.606 72.9792 239.456 73.1289 239.272 73.1289C239.087 73.1289 238.938 72.9792 238.938 72.7948C238.938 72.6104 239.087 72.4608 239.272 72.4608C239.456 72.4608 239.606 72.6104 239.606 72.7948Z" fill="#040606" fill-opacity="0.4"/>
<path d="M242.145 74.9667C242.145 75.1511 241.995 75.3008 241.811 75.3008C241.627 75.3008 241.477 75.1511 241.477 74.9667C241.477 74.7823 241.627 74.6326 241.811 74.6326C241.995 74.6326 242.145 74.7823 242.145 74.9667Z" fill="#040606" fill-opacity="0.4"/>
<path d="M244.417 77.2368C244.417 77.4212 244.267 77.5703 244.082 77.5703C243.898 77.5703 243.749 77.4212 243.749 77.2368C243.749 77.0524 243.898 76.9028 244.082 76.9028C244.267 76.9028 244.417 77.0524 244.417 77.2368Z" fill="#040606" fill-opacity="0.4"/>
<path d="M219.524 39.3142L224.554 35.6606H218.336L216.414 29.748L214.493 35.6606H208.275L213.305 39.3142L211.384 45.2266L216.414 41.5726L221.445 45.2266L219.524 39.3142Z" fill="#F2F2F2"/>
<path d="M207.935 44.4508C207.935 44.4508 207.668 46.4101 210.697 49.2601C213.726 52.1101 222.367 59.324 222.367 59.324L237.78 70.5459L235.463 73.1289L215.062 60.6597C215.062 60.6597 208.381 56.7415 207.49 54.6929C206.599 52.6445 205.619 50.596 207.935 44.4508Z" fill="#F2F2F2"/>
<path d="M236.51 71.5195C236.416 71.4524 227.172 64.7767 224.445 62.9302C221.706 61.0754 213.553 54.6113 213.471 54.5465L213.803 54.1276C213.885 54.1924 222.023 60.6441 224.745 62.4871C227.478 64.3384 236.729 71.0193 236.823 71.0865L236.51 71.5195Z" fill="#040606" fill-opacity="0.4"/>
<mask id="mask3_891_8724" style="mask-type:luminance" maskUnits="userSpaceOnUse" x="198" y="20" width="49" height="60">
<path d="M199.472 68.9433L204.996 62.174L218.982 30.3791L219.606 20.9384L236.176 24.3646L244.283 34.9212L246.421 52.0211L244.194 61.9961L236.823 68.4083L228.426 62.3525L222.141 66.167L226.124 68.8756L227.446 75.2996L210.163 79.3633L198.403 72.7513L199.472 68.9433Z" fill="white"/>
</mask>
<g mask="url(#mask3_891_8724)">
<path d="M216.755 68.3383C205.442 68.3383 196.27 59.1698 196.27 47.8592C196.27 36.5487 205.442 27.3802 216.755 27.3802C228.069 27.3802 237.241 36.5487 237.241 47.8592C237.241 59.1698 228.069 68.3383 216.755 68.3383ZM216.755 22.9665C203.003 22.9665 191.855 34.1112 191.855 47.8592C191.855 61.6073 203.003 72.752 216.755 72.752C230.507 72.752 241.655 61.6073 241.655 47.8592C241.655 34.1112 230.507 22.9665 216.755 22.9665Z" fill="#F2F2F2"/>
<path d="M224.692 22.107L223.623 24.4196L228.398 26.625L229.545 24.1409C228.011 23.3125 226.387 22.6285 224.692 22.107Z" fill="#F2F2F2"/>
<path d="M233.994 27.1433L232.117 28.8667L235.675 32.7383L237.69 30.8876C236.593 29.5325 235.358 28.2769 233.994 27.1433Z" fill="#F2F2F2"/>
<path d="M240.641 35.3704L238.245 36.2394L240.038 41.1816L242.611 40.2483C242.12 38.5756 241.463 36.9412 240.641 35.3704Z" fill="#F2F2F2"/>
<path d="M243.609 45.5207L241.063 45.401L240.816 50.6527L243.55 50.7812C243.74 49.0484 243.763 47.287 243.609 45.5207Z" fill="#F2F2F2"/>
<path d="M242.441 56.0307L240.138 54.9407L237.888 59.6931L240.362 60.8633C241.205 59.3373 241.904 57.7205 242.441 56.0307Z" fill="#F2F2F2"/>
<path d="M237.318 65.2827L235.611 63.3908L231.706 66.9112L233.538 68.9434C234.904 67.8586 236.171 66.6355 237.318 65.2827Z" fill="#F2F2F2"/>
<path d="M229.028 71.8524L228.181 69.4497L223.221 71.1972L224.13 73.7773C225.807 73.3019 227.449 72.6602 229.028 71.8524Z" fill="#F2F2F2"/>
<path d="M218.847 74.7252L218.99 72.1816L213.739 71.8864L213.586 74.6179C215.317 74.8241 217.079 74.8636 218.847 74.7252Z" fill="#F2F2F2"/>
<path d="M208.344 73.4609L209.456 71.1684L204.723 68.8758L203.53 71.3375C205.048 72.1942 206.659 72.9083 208.344 73.4609Z" fill="#F2F2F2"/>
</g>
<mask id="mask4_891_8724" style="mask-type:luminance" maskUnits="userSpaceOnUse" x="339" y="0" width="96" height="97">
<path d="M341.334 2.80723C341.334 2.58216 341.521 2.54504 342.157 2.61986C342.794 2.69469 343.925 2.28285 344.221 2.02065C344.517 1.75905 344.891 1.38431 345.153 1.42202C345.415 1.45914 345.827 1.45384 346.239 1.41907C346.651 1.38431 346.951 1.085 347.625 0.935345C348.299 0.785688 348.224 0.785695 348.598 0.747987C348.973 0.710867 348.448 1.02314 349.459 0.585957C350.471 0.148772 350.246 0.22419 350.883 0.111653C351.519 -0.000884132 351.519 -0.000893336 351.519 -0.000893336L373.388 0.373846C373.388 0.373846 373.837 0.461636 374.212 0.585957C374.586 0.710867 374.362 0.686121 374.848 0.585957C375.335 0.485793 375.672 0.585957 375.672 0.585957C375.672 0.585957 375.86 0.822812 375.86 0.972469C375.86 1.12212 375.897 1.34719 376.047 1.57168C376.197 1.79616 376.122 1.87099 376.309 2.05835C376.496 2.24572 376.721 2.4325 376.833 2.47021C376.946 2.50732 377.283 2.1709 376.946 2.50733C376.609 2.84435 376.683 3.40586 376.721 3.66805C376.758 3.93024 376.609 4.04219 376.609 4.41692C376.609 4.79106 376.683 4.97842 376.833 5.27773C376.983 5.57705 377.013 5.91407 377.091 6.21397C377.17 6.51328 377.432 6.8503 377.432 7.07479C377.432 7.29927 377.432 7.48664 377.432 7.48664C377.432 7.48664 377.657 7.86078 377.695 8.04814C377.732 8.23551 377.956 8.53483 377.956 8.53483C377.956 8.53483 378.144 8.1601 378.256 8.53483C378.368 8.90897 378.294 9.17116 378.256 9.39564C378.219 9.62013 378.593 9.39564 378.705 9.65783C378.818 9.92003 378.518 10.1816 378.518 10.5187C378.518 10.8557 378.718 11.3424 378.731 11.4549C378.743 11.5668 379.043 12.1283 379.043 12.1283C379.043 12.1283 379.267 12.2285 379.367 12.3281C379.467 12.4282 379.367 12.4159 379.517 12.6026C379.667 12.79 379.841 12.8148 379.891 12.8525C379.941 12.8896 380.091 12.7776 380.053 13.1641C380.016 13.5513 380.178 13.8005 380.428 14.1128C380.678 14.4244 380.865 14.5741 381.015 14.7615C381.164 14.9488 381.239 15.1609 381.327 15.3106C381.414 15.4603 381.414 15.5351 381.526 15.5975C381.639 15.66 381.751 15.7472 381.751 15.7472C381.751 15.7472 382.026 16.0595 382.15 16.3841C382.275 16.7082 382.538 17.2326 382.625 17.407C382.712 17.582 382.937 18.0186 383.287 18.0433C383.636 18.0686 383.885 17.9437 384.297 17.9314C384.709 17.919 385.808 18.0127 385.995 18.0468C386.182 18.081 386.544 18.1435 386.669 18.1435C386.794 18.1435 386.881 18.193 386.944 18.0557C387.006 17.919 386.881 17.4571 386.994 17.3198C387.106 17.1825 387.468 17.0823 387.58 17.0953C387.693 17.1077 387.755 16.7583 388.142 16.7583C388.529 16.7583 388.342 16.9079 388.978 16.958C389.615 17.0075 390.027 16.8832 390.227 16.8331C390.426 16.783 390.814 16.8083 390.876 16.783C390.938 16.7583 391.138 16.6334 391.113 16.3965C391.088 16.159 390.526 15.8597 390.976 15.6977C391.425 15.5351 392.586 15.4231 392.786 15.6229C392.985 15.822 393.198 16.5461 393.41 16.6581C393.622 16.7706 397.766 16.7583 397.816 16.7329C397.866 16.7082 397.991 16.0966 398.016 15.9723C398.04 15.8474 397.978 15.5852 398.103 15.4479C398.228 15.3106 398.39 15.1857 398.253 14.9235C398.115 14.6619 397.953 14.537 397.991 14.3496C398.028 14.1628 397.941 13.9755 398.09 13.913C398.24 13.8506 398.852 13.6885 399.002 13.4888C399.151 13.2891 399.364 12.5031 399.364 12.3782C399.364 12.2533 399.239 11.9286 399.239 11.6293C399.239 11.33 399.151 11.2298 399.151 10.881C399.151 10.531 399.139 10.2317 399.189 10.0944C399.239 9.95714 399.139 9.75741 399.364 9.53292C399.589 9.30844 399.389 9.20828 399.925 9.15878C400.462 9.1087 404.856 9.18 405.043 9.07571C405.23 8.97142 405.23 8.45999 405.518 8.47237C405.805 8.48474 406.641 8.60965 406.94 8.62203C407.24 8.6344 407.639 8.72219 407.627 8.97142C407.615 9.22124 407.04 11.1679 407.252 11.4048C407.464 11.6417 416.502 11.3176 416.502 11.3176C416.502 11.3176 416.926 11.7919 417.013 12.5903C417.101 13.3886 416.689 14.5494 416.589 14.7491C416.489 14.9488 416.177 15.822 416.265 16.1219C416.352 16.4212 416.639 17.6067 416.926 18.0433C417.213 18.4805 417.488 19.3413 417.538 19.541C417.588 19.7408 417.912 20.1526 417.813 21.1631C417.712 22.1736 417.313 23.3968 417.164 24.2576C417.013 25.119 417.026 25.7924 417.026 26.3916C417.026 26.9909 416.776 27.4522 416.764 27.8393C416.752 28.2258 416.876 28.3384 416.939 28.7125C417.001 29.0872 417.151 29.1868 417.226 29.5486C417.301 29.9103 417.35 30.2226 417.488 30.4224C417.625 30.6221 417.9 31.1459 418.124 31.358C418.349 31.5701 418.549 31.6826 418.861 31.8076C419.173 31.9319 419.56 32.3066 419.635 32.9306C419.71 33.5545 419.61 33.779 419.847 34.2533C420.085 34.7276 420.671 35.7758 420.633 36.4121C420.596 37.0485 420.534 37.6471 420.534 37.9222C420.534 38.1962 420.787 38.7454 420.635 38.8579C420.484 38.9698 419.772 39.0323 419.66 39.4571C419.548 39.8813 419.485 40.368 419.535 40.7174C419.585 41.0668 419.772 41.2412 419.847 41.6153C419.922 41.9901 420.059 42.3518 420.109 42.5516C420.159 42.7513 420.534 42.726 420.584 42.6765C420.633 42.6264 421.183 42.4143 421.283 42.3518C421.382 42.2894 421.607 41.9777 421.757 41.7903C421.907 41.603 421.944 41.2913 422.057 41.2288C422.169 41.1664 422.243 40.979 422.506 41.0043C422.768 41.0291 423.255 41.2288 423.717 41.316C424.178 41.4032 424.566 41.2659 424.628 41.2288C424.691 41.1911 425.377 41.2659 425.614 41.2659C425.851 41.2659 426.713 41.1416 426.925 41.0167C427.137 40.8918 426.887 40.979 427.374 40.7545C427.861 40.53 428.622 40.2802 429.171 40.2802C429.721 40.2802 430.62 40.193 430.832 40.2307C431.044 40.2679 431.056 40.2307 431.256 40.2926C431.456 40.3551 431.505 40.4051 431.731 40.368C431.955 40.3303 432.005 40.1429 432.292 40.2802C432.579 40.4175 432.654 40.4428 432.766 40.4299C432.879 40.4175 433.129 40.368 433.328 40.2178C433.528 40.0681 433.24 39.9308 433.889 39.8684C434.539 39.8059 434.551 39.9061 434.551 40.3551C434.551 40.8046 434.614 41.3962 434.651 41.4875C434.689 41.5782 434.601 41.8528 434.651 42.1521C434.701 42.452 434.763 42.8008 434.776 43.1505C434.788 43.4999 434.901 43.4001 434.776 43.7245C434.651 44.049 434.514 44.2611 434.489 44.3609C434.464 44.4608 433.889 45.1096 433.939 45.5713C433.99 46.0331 434.314 46.7568 434.314 46.7568C434.314 46.7568 434.189 47.0813 434.214 47.3808C434.239 47.6803 434.239 48.7409 434.264 49.29C434.289 49.8391 434.626 50.6128 434.713 50.8124C434.801 51.0121 434.938 51.2491 434.776 51.4238C434.614 51.5985 434.351 51.8356 434.139 52.3347C433.927 52.8339 433.802 53.1459 433.79 53.2956C433.777 53.4453 433.678 53.6574 433.678 53.8948C433.678 54.1317 433.69 54.5188 433.727 54.7179C433.765 54.9177 433.765 55.1298 433.802 55.2046C433.84 55.28 434.189 55.729 434.227 55.8038C434.264 55.8787 434.314 56.0784 434.314 56.1656C434.314 56.2534 418.686 56.3029 418.686 56.3029C418.686 56.3029 418.449 56.228 418.437 56.515C418.424 56.8019 418.287 82.0591 418.287 82.2211C418.287 82.3831 418.437 82.5204 418.711 82.8951C418.986 83.2693 419.398 84.1054 419.548 84.3051C419.697 84.5048 420.097 84.7417 420.409 85.041C420.721 85.3409 420.946 85.6278 421.008 85.8647C421.071 86.1022 421.17 86.2141 421.869 87.1003C422.568 87.9864 423.38 88.7353 423.617 88.9721C423.854 89.209 428.547 92.8532 428.547 92.8532L428.735 93.04C428.735 93.04 414.118 96.1474 413.906 96.1975C413.693 96.247 411.708 95.7856 411.447 95.7355C411.184 95.6855 410.76 95.623 410.074 95.6855C409.387 95.7479 408.813 95.7479 408.526 95.8227C408.239 95.8976 408.039 95.9477 407.677 95.96C407.315 95.9724 407.19 95.8976 406.616 95.7232C406.042 95.5482 405.53 95.3985 404.981 95.1864C404.431 94.9743 404.157 94.8871 403.57 94.8995C402.983 94.9118 399.276 94.7374 398.777 94.675C398.278 94.6125 395.794 94.5624 395.345 94.4252C394.895 94.2879 393.572 93.8136 393.535 93.7641C393.497 93.714 390.626 90.6814 390.402 90.4569C390.177 90.2324 378.069 90.4074 378.069 90.4074C378.069 90.4074 359.171 90.4569 358.859 90.4569C358.547 90.4569 358.509 90.2825 358.247 90.5194C357.985 90.7562 357.523 91.006 357.348 91.0184C357.174 91.0308 356.936 90.9813 356.787 90.9436C356.637 90.9065 356.138 90.8688 356 90.7939C355.863 90.7191 355.488 90.507 355.414 90.3573C355.339 90.2077 355.126 89.9702 355.126 89.9702C355.126 89.9702 355.114 89.9702 354.852 89.9078C354.59 89.8453 354.627 89.9702 354.016 89.6462C353.404 89.3215 352.93 88.4106 352.618 88.0984C352.305 87.7867 352.081 87.5746 351.806 87.5622C351.532 87.5498 351.369 87.462 351.294 87.5498C351.22 87.637 350.783 87.6494 350.708 87.6246C350.633 87.5993 350.246 87.4249 350.034 87.3996C349.821 87.3748 349.472 87.2752 349.035 87.4496C348.598 87.6246 347.225 88.1985 346.838 88.423C346.451 88.6475 346.039 88.8349 345.815 88.9598C345.59 89.0841 345.44 89.1842 345.253 89.1595C345.066 89.1342 344.829 88.9845 344.616 89.0717C344.404 89.1595 343.93 89.3716 343.793 89.3339C343.655 89.2968 343.418 89.1966 343.318 89.1465C343.218 89.097 342.407 88.5355 342.058 88.5727C341.708 88.6104 341.171 88.9598 340.847 89.0346C340.522 89.1094 340.11 89.2968 339.911 89.3339C339.711 89.3716 339.336 89.1842 339.336 89.1842C339.336 89.1842 339.424 88.76 339.411 88.6351C339.399 88.5102 339.411 87.0755 339.411 87.0378C339.411 87.0007 339.511 86.8257 339.648 86.6259C339.786 86.4262 339.686 86.4515 339.686 86.0521C339.686 85.6526 339.499 81.1352 339.486 80.9732C339.474 80.8112 339.561 80.711 339.461 80.5867C339.361 80.4618 338.862 79.9003 339.037 79.4259C339.212 78.9516 339.661 78.6771 339.873 78.627C340.085 78.5775 340.322 78.3029 340.372 78.2028C340.422 78.1032 340.46 77.7915 340.522 77.7291C340.585 77.6666 340.697 77.4292 340.734 77.3296C340.772 77.2294 340.847 77.0426 340.859 76.893C340.872 76.7427 340.809 76.6432 340.859 76.4688C340.909 76.2938 340.997 75.9821 340.997 75.8442C340.997 75.7075 340.984 75.433 340.997 75.3328C341.009 75.2332 340.959 75.1331 341.034 74.9586C341.109 74.7837 340.884 74.3223 341.046 74.2722C341.209 74.2222 341.533 74.0224 341.671 73.8981C341.808 73.7732 342.008 73.686 341.933 73.5487C341.858 73.4114 341.458 73.4739 341.421 73.349C341.383 73.224 341.396 72.7497 341.458 72.6125C341.521 72.4752 341.546 71.9514 341.646 71.8512C341.745 71.7516 341.77 71.7888 341.758 71.6267C341.745 71.4647 341.621 71.5896 341.708 71.1901C341.795 70.7907 342.12 69.3807 342.207 69.1061C342.295 68.8316 342.307 68.22 342.332 67.9955C342.357 67.771 342.232 67.7333 342.407 67.4965C342.582 67.259 342.544 67.097 342.557 66.8849C342.569 66.6728 342.544 66.3234 342.619 66.1985C342.694 66.0735 342.781 65.9115 342.769 65.8491C342.757 65.7866 342.632 65.8868 342.644 65.6617C342.657 65.4372 342.906 64.7761 343.081 64.5016C343.256 64.227 343.543 63.8275 343.593 63.8028C343.643 63.7774 343.705 63.8028 343.755 63.6902C343.805 63.5783 343.805 63.5282 343.805 63.2908C343.805 63.0539 343.705 62.305 343.78 62.0057C343.855 61.7064 343.992 60.7955 343.992 60.683C343.992 60.5704 343.78 60.3212 343.88 60.1592C343.98 59.9966 344.791 59.3602 344.966 59.1605C345.141 58.9607 345.315 58.3244 345.478 58.2873C345.64 58.2496 345.665 58.312 345.752 58.2496C345.84 58.1871 345.865 58.1123 345.977 58.1123C346.089 58.1123 346.264 58.1123 346.326 58.0251C346.389 57.9379 346.351 57.975 346.414 57.7629C346.476 57.5508 346.651 56.7524 346.801 56.5651C346.951 56.3777 347.113 56.1909 347.075 56.0407C347.038 55.891 346.713 55.9287 346.713 55.8038C346.713 55.6789 347.125 55.28 347.288 55.1174C347.45 54.9554 347.675 54.7928 347.849 54.7309C348.024 54.6684 348.174 54.6684 348.349 54.5188C348.523 54.3685 348.948 53.8948 349.122 53.7575C349.297 53.6203 349.572 53.3581 349.734 53.308C349.896 53.2585 350.496 53.2956 350.633 53.1831C350.77 53.0711 350.995 52.8089 351.057 52.6343C351.12 52.4595 351.307 51.7483 351.432 51.5486C351.557 51.349 351.656 51.2491 351.819 51.1618C351.981 51.0744 352.268 51.0495 352.418 50.9247C352.568 50.7999 352.992 50.5379 353.092 50.3258C353.192 50.1136 353.129 49.7393 353.267 49.5271C353.404 49.3149 353.529 49.2151 353.554 49.1278C353.579 49.0404 353.641 48.7659 353.666 48.6036C353.691 48.4414 353.579 48.3416 353.616 48.1919C353.654 48.0421 354.016 46.5322 354.028 46.1079C354.041 45.6836 353.941 45.1471 354.053 44.9349C354.165 44.7228 354.228 44.4358 354.228 44.2986C354.228 44.1613 354.228 43.8867 354.203 43.7744C354.178 43.6621 354.115 43.5623 354.115 43.4625C354.115 43.3626 354.14 43.2878 354.215 43.163C354.29 43.0382 354.328 41.8151 354.328 41.7656C354.328 41.7155 354.215 41.6336 354.253 41.4875C354.29 41.3408 354.34 41.2913 354.365 41.1039C354.39 40.9166 354.328 40.4299 354.228 40.2431C354.128 40.0557 353.716 39.3446 353.541 39.1201C353.366 38.895 353.317 38.4961 353.329 38.2711C353.341 38.0466 353.579 38.0843 353.379 37.7844C353.179 37.4851 352.031 36.1747 352.031 36.1747L351.569 35.6132C351.569 35.6132 351.544 35.0022 351.444 34.902C351.344 34.8024 350.907 34.74 350.77 34.3158C350.633 33.8915 350.72 33.5916 350.421 33.2175C350.121 32.8434 349.821 32.4686 349.821 32.4686C349.821 32.4686 349.834 31.6326 349.747 31.4705C349.659 31.3085 349.097 30.5596 349.097 30.3222C349.097 30.0853 349.36 29.6487 349.31 29.4113C349.26 29.1744 348.548 26.8536 348.448 26.6161C348.349 26.3793 347.999 25.7176 347.937 25.5432C347.874 25.3682 347.712 25.3935 347.737 25.119C347.762 24.8444 348.498 23.3467 348.76 23.1599C349.023 22.9725 349.235 22.8229 349.247 22.9348C349.26 23.0474 348.998 23.4215 348.86 23.5717C348.723 23.7214 348.136 24.3825 348.086 24.6323C348.037 24.8815 348.012 25.0188 348.299 24.6948C348.586 24.3701 348.898 23.8834 349.11 23.709C349.322 23.534 349.534 23.0474 349.697 22.9973C349.859 22.9478 350.608 22.7975 350.72 22.4611C350.833 22.1241 350.595 21.8118 350.533 21.575C350.471 21.3381 350.246 21.0258 350.308 20.7265C350.371 20.4266 350.483 20.2893 350.508 20.0525C350.533 19.8156 349.647 19.204 349.547 18.9171C349.447 18.6301 349.36 18.0309 349.272 17.8064C349.185 17.582 348.785 17.2196 348.648 16.9327C348.511 16.6457 346.888 12.8525 346.888 12.7152C346.888 12.5779 347.075 12.5526 347.063 12.4777C347.05 12.4029 346.888 12.3157 346.813 12.1661C346.738 12.0164 346.589 10.4191 346.539 10.0821C346.489 9.74504 344.953 7.87315 344.841 7.71112C344.729 7.54909 344.392 7.33698 344.08 7.12487C343.768 6.91276 343.63 6.87505 343.568 6.65057C343.505 6.42608 342.781 5.25299 342.694 5.14046C342.607 5.02792 341.87 4.65377 341.92 4.32913C341.97 4.00507 342.082 3.96736 341.97 3.78058C341.858 3.59322 341.334 2.80723 341.334 2.80723Z" fill="white"/>
</mask>
<g mask="url(#mask4_891_8724)">
<path d="M438.208 49H333.876V-0.205572H438.208V49Z" fill="#ECC8CC" fill-opacity="0.4"/>
<path d="M438.208 97.6152H333.876V49.0004H438.208V97.6152Z" fill="#9B9B9B" fill-opacity="0.4"/>
</g>
<path d="M400.37 70.7703L397.931 73.5754C397.931 73.5754 397.33 73.9431 398.666 74.2436C400.003 74.5441 400.737 74.8446 401.639 75.4791C402.542 76.1137 404.145 78.4516 404.78 79.3537C405.415 80.2552 406.45 81.6581 407.753 80.7896C409.056 79.9211 407.854 78.0174 407.753 77.7169C407.653 77.4164 405.949 75.3124 404.613 74.1098C403.276 72.9079 400.37 70.7703 400.37 70.7703Z" fill="#F2F2F2"/>
<path d="M401.606 72.7948C401.606 72.9792 401.456 73.1289 401.272 73.1289C401.087 73.1289 400.938 72.9792 400.938 72.7948C400.938 72.6104 401.087 72.4608 401.272 72.4608C401.456 72.4608 401.606 72.6104 401.606 72.7948Z" fill="#040606" fill-opacity="0.4"/>
<path d="M404.145 74.9667C404.145 75.1511 403.995 75.3008 403.811 75.3008C403.627 75.3008 403.477 75.1511 403.477 74.9667C403.477 74.7823 403.627 74.6326 403.811 74.6326C403.995 74.6326 404.145 74.7823 404.145 74.9667Z" fill="#040606" fill-opacity="0.4"/>
<path d="M406.417 77.2368C406.417 77.4212 406.267 77.5703 406.082 77.5703C405.898 77.5703 405.749 77.4212 405.749 77.2368C405.749 77.0524 405.898 76.9028 406.082 76.9028C406.267 76.9028 406.417 77.0524 406.417 77.2368Z" fill="#040606" fill-opacity="0.4"/>
<path d="M381.524 39.3142L386.554 35.6606H380.336L378.414 29.748L376.493 35.6606H370.275L375.305 39.3142L373.384 45.2266L378.414 41.5726L383.445 45.2266L381.524 39.3142Z" fill="#F2F2F2"/>
<path d="M369.935 44.4508C369.935 44.4508 369.668 46.4101 372.697 49.2601C375.726 52.1101 384.367 59.324 384.367 59.324L399.78 70.5459L397.463 73.1289L377.062 60.6597C377.062 60.6597 370.381 56.7415 369.49 54.6929C368.599 52.6445 367.619 50.596 369.935 44.4508Z" fill="#F2F2F2"/>
<path d="M398.51 71.5195C398.416 71.4524 389.172 64.7767 386.445 62.9302C383.706 61.0754 375.553 54.6113 375.471 54.5465L375.803 54.1276C375.885 54.1924 384.023 60.6441 386.745 62.4871C389.478 64.3384 398.729 71.0193 398.823 71.0865L398.51 71.5195Z" fill="#040606" fill-opacity="0.4"/>
<mask id="mask5_891_8724" style="mask-type:luminance" maskUnits="userSpaceOnUse" x="360" y="20" width="49" height="60">
<path d="M361.472 68.9433L366.996 62.174L380.982 30.3791L381.606 20.9384L398.176 24.3646L406.283 34.9212L408.421 52.0211L406.194 61.9961L398.823 68.4083L390.426 62.3525L384.141 66.167L388.124 68.8756L389.446 75.2996L372.163 79.3633L360.403 72.7513L361.472 68.9433Z" fill="white"/>
</mask>
<g mask="url(#mask5_891_8724)">
<path d="M378.755 68.3383C367.442 68.3383 358.27 59.1698 358.27 47.8592C358.27 36.5487 367.442 27.3802 378.755 27.3802C390.069 27.3802 399.241 36.5487 399.241 47.8592C399.241 59.1698 390.069 68.3383 378.755 68.3383ZM378.755 22.9665C365.003 22.9665 353.855 34.1112 353.855 47.8592C353.855 61.6073 365.003 72.752 378.755 72.752C392.507 72.752 403.655 61.6073 403.655 47.8592C403.655 34.1112 392.507 22.9665 378.755 22.9665Z" fill="#F2F2F2"/>
<path d="M386.692 22.107L385.623 24.4196L390.398 26.625L391.545 24.1409C390.011 23.3125 388.387 22.6285 386.692 22.107Z" fill="#F2F2F2"/>
<path d="M395.994 27.1433L394.117 28.8667L397.675 32.7383L399.69 30.8876C398.593 29.5325 397.358 28.2769 395.994 27.1433Z" fill="#F2F2F2"/>
<path d="M402.641 35.3704L400.245 36.2394L402.038 41.1816L404.611 40.2483C404.12 38.5756 403.463 36.9412 402.641 35.3704Z" fill="#F2F2F2"/>
<path d="M405.609 45.5207L403.063 45.401L402.816 50.6527L405.55 50.7812C405.74 49.0484 405.763 47.287 405.609 45.5207Z" fill="#F2F2F2"/>
<path d="M404.441 56.0307L402.138 54.9407L399.888 59.6931L402.362 60.8633C403.205 59.3373 403.904 57.7205 404.441 56.0307Z" fill="#F2F2F2"/>
<path d="M399.318 65.2827L397.611 63.3908L393.706 66.9112L395.538 68.9434C396.904 67.8586 398.171 66.6355 399.318 65.2827Z" fill="#F2F2F2"/>
<path d="M391.028 71.8524L390.181 69.4497L385.221 71.1972L386.13 73.7773C387.807 73.3019 389.449 72.6602 391.028 71.8524Z" fill="#F2F2F2"/>
<path d="M380.847 74.7252L380.99 72.1816L375.739 71.8864L375.586 74.6179C377.317 74.8241 379.079 74.8636 380.847 74.7252Z" fill="#F2F2F2"/>
<path d="M370.344 73.4609L371.456 71.1684L366.723 68.8758L365.53 71.3375C367.048 72.1942 368.659 72.9083 370.344 73.4609Z" fill="#F2F2F2"/>
</g>
<mask id="mask6_891_8724" style="mask-type:luminance" maskUnits="userSpaceOnUse" x="497" y="0" width="96" height="97">
<path d="M499.334 2.80723C499.334 2.58216 499.521 2.54504 500.157 2.61986C500.794 2.69469 501.925 2.28285 502.221 2.02065C502.517 1.75905 502.891 1.38431 503.153 1.42202C503.415 1.45914 503.827 1.45384 504.239 1.41907C504.651 1.38431 504.951 1.085 505.625 0.935345C506.299 0.785688 506.224 0.785695 506.598 0.747987C506.973 0.710867 506.448 1.02314 507.459 0.585957C508.471 0.148772 508.246 0.22419 508.883 0.111653C509.519 -0.000884132 509.519 -0.000893336 509.519 -0.000893336L531.388 0.373846C531.388 0.373846 531.837 0.461636 532.212 0.585957C532.586 0.710867 532.362 0.686121 532.848 0.585957C533.335 0.485793 533.672 0.585957 533.672 0.585957C533.672 0.585957 533.86 0.822812 533.86 0.972469C533.86 1.12212 533.897 1.34719 534.047 1.57168C534.197 1.79616 534.122 1.87099 534.309 2.05835C534.496 2.24572 534.721 2.4325 534.833 2.47021C534.946 2.50732 535.283 2.1709 534.946 2.50733C534.609 2.84435 534.683 3.40586 534.721 3.66805C534.758 3.93024 534.609 4.04219 534.609 4.41692C534.609 4.79106 534.683 4.97842 534.833 5.27773C534.983 5.57705 535.013 5.91407 535.091 6.21397C535.17 6.51328 535.432 6.8503 535.432 7.07479C535.432 7.29927 535.432 7.48664 535.432 7.48664C535.432 7.48664 535.657 7.86078 535.695 8.04814C535.732 8.23551 535.956 8.53483 535.956 8.53483C535.956 8.53483 536.144 8.1601 536.256 8.53483C536.368 8.90897 536.294 9.17116 536.256 9.39564C536.219 9.62013 536.593 9.39564 536.705 9.65783C536.818 9.92003 536.518 10.1816 536.518 10.5187C536.518 10.8557 536.718 11.3424 536.731 11.4549C536.743 11.5668 537.043 12.1283 537.043 12.1283C537.043 12.1283 537.267 12.2285 537.367 12.3281C537.467 12.4282 537.367 12.4159 537.517 12.6026C537.667 12.79 537.841 12.8148 537.891 12.8525C537.941 12.8896 538.091 12.7776 538.053 13.1641C538.016 13.5513 538.178 13.8005 538.428 14.1128C538.678 14.4244 538.865 14.5741 539.015 14.7615C539.164 14.9488 539.239 15.1609 539.327 15.3106C539.414 15.4603 539.414 15.5351 539.526 15.5975C539.639 15.66 539.751 15.7472 539.751 15.7472C539.751 15.7472 540.026 16.0595 540.15 16.3841C540.275 16.7082 540.538 17.2326 540.625 17.407C540.712 17.582 540.937 18.0186 541.287 18.0433C541.636 18.0686 541.885 17.9437 542.297 17.9314C542.709 17.919 543.808 18.0127 543.995 18.0468C544.182 18.081 544.544 18.1435 544.669 18.1435C544.794 18.1435 544.881 18.193 544.944 18.0557C545.006 17.919 544.881 17.4571 544.994 17.3198C545.106 17.1825 545.468 17.0823 545.58 17.0953C545.693 17.1077 545.755 16.7583 546.142 16.7583C546.529 16.7583 546.342 16.9079 546.978 16.958C547.615 17.0075 548.027 16.8832 548.227 16.8331C548.426 16.783 548.814 16.8083 548.876 16.783C548.938 16.7583 549.138 16.6334 549.113 16.3965C549.088 16.159 548.526 15.8597 548.976 15.6977C549.425 15.5351 550.586 15.4231 550.786 15.6229C550.985 15.822 551.198 16.5461 551.41 16.6581C551.622 16.7706 555.766 16.7583 555.816 16.7329C555.866 16.7082 555.991 16.0966 556.016 15.9723C556.04 15.8474 555.978 15.5852 556.103 15.4479C556.228 15.3106 556.39 15.1857 556.253 14.9235C556.115 14.6619 555.953 14.537 555.991 14.3496C556.028 14.1628 555.941 13.9755 556.09 13.913C556.24 13.8506 556.852 13.6885 557.002 13.4888C557.151 13.2891 557.364 12.5031 557.364 12.3782C557.364 12.2533 557.239 11.9286 557.239 11.6293C557.239 11.33 557.151 11.2298 557.151 10.881C557.151 10.531 557.139 10.2317 557.189 10.0944C557.239 9.95714 557.139 9.75741 557.364 9.53292C557.589 9.30844 557.389 9.20828 557.925 9.15878C558.462 9.1087 562.856 9.18 563.043 9.07571C563.23 8.97142 563.23 8.45999 563.518 8.47237C563.805 8.48474 564.641 8.60965 564.94 8.62203C565.24 8.6344 565.639 8.72219 565.627 8.97142C565.615 9.22124 565.04 11.1679 565.252 11.4048C565.464 11.6417 574.502 11.3176 574.502 11.3176C574.502 11.3176 574.926 11.7919 575.013 12.5903C575.101 13.3886 574.689 14.5494 574.589 14.7491C574.489 14.9488 574.177 15.822 574.265 16.1219C574.352 16.4212 574.639 17.6067 574.926 18.0433C575.213 18.4805 575.488 19.3413 575.538 19.541C575.588 19.7408 575.912 20.1526 575.813 21.1631C575.712 22.1736 575.313 23.3968 575.164 24.2576C575.013 25.119 575.026 25.7924 575.026 26.3916C575.026 26.9909 574.776 27.4522 574.764 27.8393C574.752 28.2258 574.876 28.3384 574.939 28.7125C575.001 29.0872 575.151 29.1868 575.226 29.5486C575.301 29.9103 575.35 30.2226 575.488 30.4224C575.625 30.6221 575.9 31.1459 576.124 31.358C576.349 31.5701 576.549 31.6826 576.861 31.8076C577.173 31.9319 577.56 32.3066 577.635 32.9306C577.71 33.5545 577.61 33.779 577.847 34.2533C578.085 34.7276 578.671 35.7758 578.633 36.4121C578.596 37.0485 578.534 37.6471 578.534 37.9222C578.534 38.1962 578.787 38.7454 578.635 38.8579C578.484 38.9698 577.772 39.0323 577.66 39.4571C577.548 39.8813 577.485 40.368 577.535 40.7174C577.585 41.0668 577.772 41.2412 577.847 41.6153C577.922 41.9901 578.059 42.3518 578.109 42.5516C578.159 42.7513 578.534 42.726 578.584 42.6765C578.633 42.6264 579.183 42.4143 579.283 42.3518C579.382 42.2894 579.607 41.9777 579.757 41.7903C579.907 41.603 579.944 41.2913 580.057 41.2288C580.169 41.1664 580.243 40.979 580.506 41.0043C580.768 41.0291 581.255 41.2288 581.717 41.316C582.178 41.4032 582.566 41.2659 582.628 41.2288C582.691 41.1911 583.377 41.2659 583.614 41.2659C583.851 41.2659 584.713 41.1416 584.925 41.0167C585.137 40.8918 584.887 40.979 585.374 40.7545C585.861 40.53 586.622 40.2802 587.171 40.2802C587.721 40.2802 588.62 40.193 588.832 40.2307C589.044 40.2679 589.056 40.2307 589.256 40.2926C589.456 40.3551 589.505 40.4051 589.731 40.368C589.955 40.3303 590.005 40.1429 590.292 40.2802C590.579 40.4175 590.654 40.4428 590.766 40.4299C590.879 40.4175 591.129 40.368 591.328 40.2178C591.528 40.0681 591.24 39.9308 591.889 39.8684C592.539 39.8059 592.551 39.9061 592.551 40.3551C592.551 40.8046 592.614 41.3962 592.651 41.4875C592.689 41.5782 592.601 41.8528 592.651 42.1521C592.701 42.452 592.763 42.8008 592.776 43.1505C592.788 43.4999 592.901 43.4001 592.776 43.7245C592.651 44.049 592.514 44.2611 592.489 44.3609C592.464 44.4608 591.889 45.1096 591.939 45.5713C591.99 46.0331 592.314 46.7568 592.314 46.7568C592.314 46.7568 592.189 47.0813 592.214 47.3808C592.239 47.6803 592.239 48.7409 592.264 49.29C592.289 49.8391 592.626 50.6128 592.713 50.8124C592.801 51.0121 592.938 51.2491 592.776 51.4238C592.614 51.5985 592.351 51.8356 592.139 52.3347C591.927 52.8339 591.802 53.1459 591.79 53.2956C591.777 53.4453 591.678 53.6574 591.678 53.8948C591.678 54.1317 591.69 54.5188 591.727 54.7179C591.765 54.9177 591.765 55.1298 591.802 55.2046C591.84 55.28 592.189 55.729 592.227 55.8038C592.264 55.8787 592.314 56.0784 592.314 56.1656C592.314 56.2534 576.686 56.3029 576.686 56.3029C576.686 56.3029 576.449 56.228 576.437 56.515C576.424 56.8019 576.287 82.0591 576.287 82.2211C576.287 82.3831 576.437 82.5204 576.711 82.8951C576.986 83.2693 577.398 84.1054 577.548 84.3051C577.697 84.5048 578.097 84.7417 578.409 85.041C578.721 85.3409 578.946 85.6278 579.008 85.8647C579.071 86.1022 579.17 86.2141 579.869 87.1003C580.568 87.9864 581.38 88.7353 581.617 88.9721C581.854 89.209 586.547 92.8532 586.547 92.8532L586.735 93.04C586.735 93.04 572.118 96.1474 571.906 96.1975C571.693 96.247 569.708 95.7856 569.447 95.7355C569.184 95.6855 568.76 95.623 568.074 95.6855C567.387 95.7479 566.813 95.7479 566.526 95.8227C566.239 95.8976 566.039 95.9477 565.677 95.96C565.315 95.9724 565.19 95.8976 564.616 95.7232C564.042 95.5482 563.53 95.3985 562.981 95.1864C562.431 94.9743 562.157 94.8871 561.57 94.8995C560.983 94.9118 557.276 94.7374 556.777 94.675C556.278 94.6125 553.794 94.5624 553.345 94.4252C552.895 94.2879 551.572 93.8136 551.535 93.7641C551.497 93.714 548.626 90.6814 548.402 90.4569C548.177 90.2324 536.069 90.4074 536.069 90.4074C536.069 90.4074 517.171 90.4569 516.859 90.4569C516.547 90.4569 516.509 90.2825 516.247 90.5194C515.985 90.7562 515.523 91.006 515.348 91.0184C515.174 91.0308 514.936 90.9813 514.787 90.9436C514.637 90.9065 514.138 90.8688 514 90.7939C513.863 90.7191 513.488 90.507 513.414 90.3573C513.339 90.2077 513.126 89.9702 513.126 89.9702C513.126 89.9702 513.114 89.9702 512.852 89.9078C512.59 89.8453 512.627 89.9702 512.016 89.6462C511.404 89.3215 510.93 88.4106 510.618 88.0984C510.305 87.7867 510.081 87.5746 509.806 87.5622C509.532 87.5498 509.369 87.462 509.294 87.5498C509.22 87.637 508.783 87.6494 508.708 87.6246C508.633 87.5993 508.246 87.4249 508.034 87.3996C507.821 87.3748 507.472 87.2752 507.035 87.4496C506.598 87.6246 505.225 88.1985 504.838 88.423C504.451 88.6475 504.039 88.8349 503.815 88.9598C503.59 89.0841 503.44 89.1842 503.253 89.1595C503.066 89.1342 502.829 88.9845 502.616 89.0717C502.404 89.1595 501.93 89.3716 501.793 89.3339C501.655 89.2968 501.418 89.1966 501.318 89.1465C501.218 89.097 500.407 88.5355 500.058 88.5727C499.708 88.6104 499.171 88.9598 498.847 89.0346C498.522 89.1094 498.11 89.2968 497.911 89.3339C497.711 89.3716 497.336 89.1842 497.336 89.1842C497.336 89.1842 497.424 88.76 497.411 88.6351C497.399 88.5102 497.411 87.0755 497.411 87.0378C497.411 87.0007 497.511 86.8257 497.648 86.6259C497.786 86.4262 497.686 86.4515 497.686 86.0521C497.686 85.6526 497.499 81.1352 497.486 80.9732C497.474 80.8112 497.561 80.711 497.461 80.5867C497.361 80.4618 496.862 79.9003 497.037 79.4259C497.212 78.9516 497.661 78.6771 497.873 78.627C498.085 78.5775 498.322 78.3029 498.372 78.2028C498.422 78.1032 498.46 77.7915 498.522 77.7291C498.585 77.6666 498.697 77.4292 498.734 77.3296C498.772 77.2294 498.847 77.0426 498.859 76.893C498.872 76.7427 498.809 76.6432 498.859 76.4688C498.909 76.2938 498.997 75.9821 498.997 75.8442C498.997 75.7075 498.984 75.433 498.997 75.3328C499.009 75.2332 498.959 75.1331 499.034 74.9586C499.109 74.7837 498.884 74.3223 499.046 74.2722C499.209 74.2222 499.533 74.0224 499.671 73.8981C499.808 73.7732 500.008 73.686 499.933 73.5487C499.858 73.4114 499.458 73.4739 499.421 73.349C499.383 73.224 499.396 72.7497 499.458 72.6125C499.521 72.4752 499.546 71.9514 499.646 71.8512C499.745 71.7516 499.77 71.7888 499.758 71.6267C499.745 71.4647 499.621 71.5896 499.708 71.1901C499.795 70.7907 500.12 69.3807 500.207 69.1061C500.295 68.8316 500.307 68.22 500.332 67.9955C500.357 67.771 500.232 67.7333 500.407 67.4965C500.582 67.259 500.544 67.097 500.557 66.8849C500.569 66.6728 500.544 66.3234 500.619 66.1985C500.694 66.0735 500.781 65.9115 500.769 65.8491C500.757 65.7866 500.632 65.8868 500.644 65.6617C500.657 65.4372 500.906 64.7761 501.081 64.5016C501.256 64.227 501.543 63.8275 501.593 63.8028C501.643 63.7774 501.705 63.8028 501.755 63.6902C501.805 63.5783 501.805 63.5282 501.805 63.2908C501.805 63.0539 501.705 62.305 501.78 62.0057C501.855 61.7064 501.992 60.7955 501.992 60.683C501.992 60.5704 501.78 60.3212 501.88 60.1592C501.98 59.9966 502.791 59.3602 502.966 59.1605C503.141 58.9607 503.315 58.3244 503.478 58.2873C503.64 58.2496 503.665 58.312 503.752 58.2496C503.84 58.1871 503.865 58.1123 503.977 58.1123C504.089 58.1123 504.264 58.1123 504.326 58.0251C504.389 57.9379 504.351 57.975 504.414 57.7629C504.476 57.5508 504.651 56.7524 504.801 56.5651C504.951 56.3777 505.113 56.1909 505.075 56.0407C505.038 55.891 504.713 55.9287 504.713 55.8038C504.713 55.6789 505.125 55.28 505.288 55.1174C505.45 54.9554 505.675 54.7928 505.849 54.7309C506.024 54.6684 506.174 54.6684 506.349 54.5188C506.523 54.3685 506.948 53.8948 507.122 53.7575C507.297 53.6203 507.572 53.3581 507.734 53.308C507.896 53.2585 508.496 53.2956 508.633 53.1831C508.77 53.0711 508.995 52.8089 509.057 52.6343C509.12 52.4595 509.307 51.7483 509.432 51.5486C509.557 51.349 509.656 51.2491 509.819 51.1618C509.981 51.0744 510.268 51.0495 510.418 50.9247C510.568 50.7999 510.992 50.5379 511.092 50.3258C511.192 50.1136 511.129 49.7393 511.267 49.5271C511.404 49.3149 511.529 49.2151 511.554 49.1278C511.579 49.0404 511.641 48.7659 511.666 48.6036C511.691 48.4414 511.579 48.3416 511.616 48.1919C511.654 48.0421 512.016 46.5322 512.028 46.1079C512.041 45.6836 511.941 45.1471 512.053 44.9349C512.165 44.7228 512.228 44.4358 512.228 44.2986C512.228 44.1613 512.228 43.8867 512.203 43.7744C512.178 43.6621 512.115 43.5623 512.115 43.4625C512.115 43.3626 512.14 43.2878 512.215 43.163C512.29 43.0382 512.328 41.8151 512.328 41.7656C512.328 41.7155 512.215 41.6336 512.253 41.4875C512.29 41.3408 512.34 41.2913 512.365 41.1039C512.39 40.9166 512.328 40.4299 512.228 40.2431C512.128 40.0557 511.716 39.3446 511.541 39.1201C511.366 38.895 511.317 38.4961 511.329 38.2711C511.341 38.0466 511.579 38.0843 511.379 37.7844C511.179 37.4851 510.031 36.1747 510.031 36.1747L509.569 35.6132C509.569 35.6132 509.544 35.0022 509.444 34.902C509.344 34.8024 508.907 34.74 508.77 34.3158C508.633 33.8915 508.72 33.5916 508.421 33.2175C508.121 32.8434 507.821 32.4686 507.821 32.4686C507.821 32.4686 507.834 31.6326 507.747 31.4705C507.659 31.3085 507.097 30.5596 507.097 30.3222C507.097 30.0853 507.36 29.6487 507.31 29.4113C507.26 29.1744 506.548 26.8536 506.448 26.6161C506.349 26.3793 505.999 25.7176 505.937 25.5432C505.874 25.3682 505.712 25.3935 505.737 25.119C505.762 24.8444 506.498 23.3467 506.76 23.1599C507.023 22.9725 507.235 22.8229 507.247 22.9348C507.26 23.0474 506.998 23.4215 506.86 23.5717C506.723 23.7214 506.136 24.3825 506.086 24.6323C506.037 24.8815 506.012 25.0188 506.299 24.6948C506.586 24.3701 506.898 23.8834 507.11 23.709C507.322 23.534 507.534 23.0474 507.697 22.9973C507.859 22.9478 508.608 22.7975 508.72 22.4611C508.833 22.1241 508.595 21.8118 508.533 21.575C508.471 21.3381 508.246 21.0258 508.308 20.7265C508.371 20.4266 508.483 20.2893 508.508 20.0525C508.533 19.8156 507.647 19.204 507.547 18.9171C507.447 18.6301 507.36 18.0309 507.272 17.8064C507.185 17.582 506.785 17.2196 506.648 16.9327C506.511 16.6457 504.888 12.8525 504.888 12.7152C504.888 12.5779 505.075 12.5526 505.063 12.4777C505.05 12.4029 504.888 12.3157 504.813 12.1661C504.738 12.0164 504.589 10.4191 504.539 10.0821C504.489 9.74504 502.953 7.87315 502.841 7.71112C502.729 7.54909 502.392 7.33698 502.08 7.12487C501.768 6.91276 501.63 6.87505 501.568 6.65057C501.505 6.42608 500.781 5.25299 500.694 5.14046C500.607 5.02792 499.87 4.65377 499.92 4.32913C499.97 4.00507 500.082 3.96736 499.97 3.78058C499.858 3.59322 499.334 2.80723 499.334 2.80723Z" fill="white"/>
</mask>
<g mask="url(#mask6_891_8724)">
<path d="M596.208 49H491.876V-0.205572H596.208V49Z" fill="#ECC8CC" fill-opacity="0.4"/>
<path d="M596.208 97.6152H491.876V49.0004H596.208V97.6152Z" fill="#9B9B9B" fill-opacity="0.4"/>
</g>
<path d="M558.37 70.7703L555.931 73.5754C555.931 73.5754 555.33 73.9431 556.666 74.2436C558.003 74.5441 558.737 74.8446 559.639 75.4791C560.542 76.1137 562.145 78.4516 562.78 79.3537C563.415 80.2552 564.45 81.6581 565.753 80.7896C567.056 79.9211 565.854 78.0174 565.753 77.7169C565.653 77.4164 563.949 75.3124 562.613 74.1098C561.276 72.9079 558.37 70.7703 558.37 70.7703Z" fill="#F2F2F2"/>
<path d="M559.606 72.7948C559.606 72.9792 559.456 73.1289 559.272 73.1289C559.087 73.1289 558.938 72.9792 558.938 72.7948C558.938 72.6104 559.087 72.4608 559.272 72.4608C559.456 72.4608 559.606 72.6104 559.606 72.7948Z" fill="#040606" fill-opacity="0.4"/>
<path d="M562.145 74.9667C562.145 75.1511 561.995 75.3008 561.811 75.3008C561.627 75.3008 561.477 75.1511 561.477 74.9667C561.477 74.7823 561.627 74.6326 561.811 74.6326C561.995 74.6326 562.145 74.7823 562.145 74.9667Z" fill="#040606" fill-opacity="0.4"/>
<path d="M564.417 77.2368C564.417 77.4212 564.267 77.5703 564.082 77.5703C563.898 77.5703 563.749 77.4212 563.749 77.2368C563.749 77.0524 563.898 76.9028 564.082 76.9028C564.267 76.9028 564.417 77.0524 564.417 77.2368Z" fill="#040606" fill-opacity="0.4"/>
<path d="M539.524 39.3142L544.554 35.6606H538.336L536.414 29.748L534.493 35.6606H528.275L533.305 39.3142L531.384 45.2266L536.414 41.5726L541.445 45.2266L539.524 39.3142Z" fill="#F2F2F2"/>
<path d="M527.935 44.4508C527.935 44.4508 527.668 46.4101 530.697 49.2601C533.726 52.1101 542.367 59.324 542.367 59.324L557.78 70.5459L555.463 73.1289L535.062 60.6597C535.062 60.6597 528.381 56.7415 527.49 54.6929C526.599 52.6445 525.619 50.596 527.935 44.4508Z" fill="#F2F2F2"/>
<path d="M556.51 71.5195C556.416 71.4524 547.172 64.7767 544.445 62.9302C541.706 61.0754 533.553 54.6113 533.471 54.5465L533.803 54.1276C533.885 54.1924 542.023 60.6441 544.745 62.4871C547.478 64.3384 556.729 71.0193 556.823 71.0865L556.51 71.5195Z" fill="#040606" fill-opacity="0.4"/>
<mask id="mask7_891_8724" style="mask-type:luminance" maskUnits="userSpaceOnUse" x="518" y="20" width="49" height="60">
<path d="M519.472 68.9433L524.996 62.174L538.982 30.3791L539.606 20.9384L556.176 24.3646L564.283 34.9212L566.421 52.0211L564.194 61.9961L556.823 68.4083L548.426 62.3525L542.141 66.167L546.124 68.8756L547.446 75.2996L530.163 79.3633L518.403 72.7513L519.472 68.9433Z" fill="white"/>
</mask>
<g mask="url(#mask7_891_8724)">
<path d="M536.755 68.3383C525.442 68.3383 516.27 59.1698 516.27 47.8592C516.27 36.5487 525.442 27.3802 536.755 27.3802C548.069 27.3802 557.241 36.5487 557.241 47.8592C557.241 59.1698 548.069 68.3383 536.755 68.3383ZM536.755 22.9665C523.003 22.9665 511.855 34.1112 511.855 47.8592C511.855 61.6073 523.003 72.752 536.755 72.752C550.507 72.752 561.655 61.6073 561.655 47.8592C561.655 34.1112 550.507 22.9665 536.755 22.9665Z" fill="#F2F2F2"/>
<path d="M544.692 22.107L543.623 24.4196L548.398 26.625L549.545 24.1409C548.011 23.3125 546.387 22.6285 544.692 22.107Z" fill="#F2F2F2"/>
<path d="M553.994 27.1433L552.117 28.8667L555.675 32.7383L557.69 30.8876C556.593 29.5325 555.358 28.2769 553.994 27.1433Z" fill="#F2F2F2"/>
<path d="M560.641 35.3704L558.245 36.2394L560.038 41.1816L562.611 40.2483C562.12 38.5756 561.463 36.9412 560.641 35.3704Z" fill="#F2F2F2"/>
<path d="M563.609 45.5207L561.063 45.401L560.816 50.6527L563.55 50.7812C563.74 49.0484 563.763 47.287 563.609 45.5207Z" fill="#F2F2F2"/>
<path d="M562.441 56.0307L560.138 54.9407L557.888 59.6931L560.362 60.8633C561.205 59.3373 561.904 57.7205 562.441 56.0307Z" fill="#F2F2F2"/>
<path d="M557.318 65.2827L555.611 63.3908L551.706 66.9112L553.538 68.9434C554.904 67.8586 556.171 66.6355 557.318 65.2827Z" fill="#F2F2F2"/>
<path d="M549.028 71.8524L548.181 69.4497L543.221 71.1972L544.13 73.7773C545.807 73.3019 547.449 72.6602 549.028 71.8524Z" fill="#F2F2F2"/>
<path d="M538.847 74.7252L538.99 72.1816L533.739 71.8864L533.586 74.6179C535.317 74.8241 537.079 74.8636 538.847 74.7252Z" fill="#F2F2F2"/>
<path d="M528.344 73.4609L529.456 71.1684L524.723 68.8758L523.53 71.3375C525.048 72.1942 526.659 72.9083 528.344 73.4609Z" fill="#F2F2F2"/>
</g>
</svg>
