<svg width="653" height="224" viewBox="0 0 653 224" fill="none" xmlns="http://www.w3.org/2000/svg">
<rect y="0.205078" width="652.564" height="223.077" fill="#515151" fill-opacity="0.6"/>
<path fill-rule="evenodd" clip-rule="evenodd" d="M608.65 223.282H652.564V179.368L608.65 223.282ZM652.564 169.099V126.036L555.318 223.282H598.381L652.564 169.099ZM652.564 79.2422V115.767L545.049 223.282H508.524L652.564 79.2422ZM327.707 223.282H367.203L590.28 0.205078H550.784L327.707 223.282ZM540.515 0.205078H499.004L275.927 223.282H317.438L540.515 0.205078ZM114.14 223.282H73.5577L296.635 0.205078H337.217L114.14 223.282ZM249.84 0.205078H286.365L63.2885 223.282H26.763L249.84 0.205078ZM424.267 223.282H458.587L652.564 29.3048V0.205078H647.344L424.267 223.282ZM637.075 0.205078H600.55L377.473 223.282H413.998L637.075 0.205078ZM216.21 223.282H181.891L404.968 0.205078H439.287L216.21 223.282ZM347.486 0.205078H394.698L171.621 223.282H124.409L347.486 0.205078ZM0 165.789V200.108L199.903 0.205078H165.583L0 165.789ZM155.314 0.205078H118.789L0 118.994V155.519L155.314 0.205078ZM652.564 39.574V68.973L498.255 223.282H468.856L652.564 39.574ZM488.735 0.205078H449.556L226.479 223.282H265.658L488.735 0.205078ZM210.172 0.205078H239.571L16.4939 223.282H0V210.377L210.172 0.205078ZM108.52 0.205078H79.1206L0 79.3257V108.725L108.52 0.205078ZM39.377 0.205078H68.8515L0 69.0565V39.5821L39.377 0.205078ZM29.1079 0.205078H0V29.3129L29.1079 0.205078Z" fill="#515151"/>
</svg>
